<?xml version="1.0" encoding="UTF-8" standalone="no"?>
<svg
   xmlns:dc="http://purl.org/dc/elements/1.1/"
   xmlns:cc="http://creativecommons.org/ns#"
   xmlns:rdf="http://www.w3.org/1999/02/22-rdf-syntax-ns#"
   xmlns:svg="http://www.w3.org/2000/svg"
   xmlns="http://www.w3.org/2000/svg"
   xmlns:sodipodi="http://sodipodi.sourceforge.net/DTD/sodipodi-0.dtd"
   xmlns:inkscape="http://www.inkscape.org/namespaces/inkscape"
   width="595.3pt"
   height="841.9pt"
   viewBox="0 0 595.3 841.9"
   version="1.1"
   id="svg9"
   sodipodi:docname="23.svg"
   inkscape:version="0.92.2 (5c3e80d, 2017-08-06)">
  <metadata
     id="metadata13">
    <rdf:RDF>
      <cc:Work
         rdf:about="">
        <dc:format>image/svg+xml</dc:format>
        <dc:type
           rdf:resource="http://purl.org/dc/dcmitype/StillImage" />
        <dc:title></dc:title>
      </cc:Work>
    </rdf:RDF>
  </metadata>
  <sodipodi:namedview
     pagecolor="#ffffff"
     bordercolor="#666666"
     borderopacity="1"
     objecttolerance="10"
     gridtolerance="10"
     guidetolerance="10"
     inkscape:pageopacity="0"
     inkscape:pageshadow="2"
     inkscape:window-width="1680"
     inkscape:window-height="997"
     id="namedview11"
     showgrid="false"
     inkscape:zoom="0.42047748"
     inkscape:cx="332.40732"
     inkscape:cy="549.29633"
     inkscape:window-x="1672"
     inkscape:window-y="-8"
     inkscape:window-maximized="1"
     inkscape:current-layer="svg9" />
  <defs
     id="defs2" />
  <path
     style="fill:#ff0000;fill-opacity:1;fill-rule:evenodd;stroke:#ff0000;stroke-width:1.62899542;stroke-linecap:round;stroke-linejoin:round;stroke-opacity:1"
     d="m 537.21533,111.14648 c -3.14164,-0.0291 -6.86452,0.0866 -9.77344,0.31934 -3.95613,0.46543 -10.00664,1.39639 -12.10107,1.86182 -0.69814,0 -1.6295,0.2331 -2.32764,0.46582 -0.69814,0 -1.6293,0.23291 -2.09472,0.23291 -0.46543,0.23271 -2.09445,0.46475 -3.49073,0.93017 -1.39627,0.23272 -3.0251,0.46601 -3.25781,0.69873 -0.46543,0 -1.62823,0.46602 -2.55908,0.69873 -1.16357,0.23271 -2.32764,0.69727 -2.32764,0.69727 -0.23271,0.23271 -0.93057,0.46582 -1.39599,0.46582 -0.46543,0.23271 -0.93183,0.23311 -1.16455,0.46582 -0.23271,0 -0.46476,0.23165 -0.93018,0.46436 -0.93086,0.23271 -4.88751,1.62931 -5.81836,2.09472 -0.46543,0.23272 -0.93037,0.23291 -1.16308,0.23291 -0.23273,0 -0.46602,0.23291 -0.69873,0.23291 -0.23273,0.23271 -0.92951,0.46476 -1.86036,0.93017 -0.69814,0.23273 -1.8622,0.69894 -2.32764,0.93165 -0.46542,0 -1.62968,0.69765 -2.56054,1.16308 -0.93085,0.23271 -1.86182,0.69873 -1.86182,0.69873 -0.46543,0 -6.98147,3.25793 -10.47216,5.11964 -0.69815,0.46542 -1.62784,0.93036 -2.09327,1.16308 -0.23271,0 -1.86173,0.93116 -3.49072,2.09473 -7.67955,4.65427 -15.59184,10.23977 -22.57324,16.05761 -0.69815,0.46544 -1.8624,1.39639 -2.56055,1.86182 -1.62899,1.39628 -5.11983,4.42129 -5.35254,4.88672 -0.23271,0 -1.1626,0.93116 -2.32617,2.09473 -2.32713,2.09442 -3.95657,3.25782 -7.44726,6.74853 -1.39629,1.39628 -3.72336,3.49044 -5.11963,4.88672 -1.39629,1.16357 -4.4216,4.18849 -6.98145,6.51563 -3.95614,3.72341 -5.58487,5.35303 -8.37744,7.68017 l -0.69873,0.69726 -1.16309,-0.69726 c -0.69815,-0.46543 -1.39599,-0.69892 -1.39599,-0.93164 -0.23271,0 -1.86292,-0.93048 -4.88819,-3.02491 -1.16357,-0.69814 -2.32637,-1.6289 -2.55908,-1.6289 -0.23272,-0.23271 -1.86173,-1.16388 -3.49073,-2.09472 -1.8617,-1.16358 -3.72422,-2.32638 -4.42236,-2.55909 -0.46542,-0.46542 -2.09444,-1.39659 -3.49072,-2.09473 -3.72342,-2.09442 -6.51515,-3.49141 -11.16943,-6.05127 -1.39628,-0.69813 -3.49024,-1.86074 -4.65381,-2.32616 -9.30855,-4.88698 -27.46048,-13.96379 -33.27832,-16.75636 -0.93086,-0.23271 -2.09532,-0.93037 -2.79346,-1.16308 -2.32713,-1.16357 -3.72326,-1.62843 -6.74853,-2.792 -1.86171,-0.69813 -3.49093,-1.39619 -3.72364,-1.6289 -0.23272,0 -0.46455,-0.23291 -0.69726,-0.23291 -0.23272,0 -0.69892,-0.23291 -0.93164,-0.23291 -0.46543,-0.2327 -1.16349,-0.46601 -1.62891,-0.69873 -0.46543,0 -0.93038,-0.23291 -1.16309,-0.23291 -0.23271,-0.23271 -0.69765,-0.46435 -1.16308,-0.46435 -0.46543,-0.23271 -0.93184,-0.2331 -1.16455,-0.46583 -0.23271,0 -0.69786,-0.23311 -1.396,-0.46582 -0.69813,0 -2.32755,-0.46474 -3.95654,-0.93017 -4.42156,-1.16357 -4.88674,-1.16349 -8.37744,-1.62891 -4.42156,-0.46543 -6.28352,-0.46543 -10.70508,0 -3.49071,0.46542 -5.11846,0.69786 -7.21289,1.396 -0.69814,0.23271 -1.39766,0.46582 -1.63037,0.46582 0,0 -0.46475,-0.001 -0.93018,0.23145 -0.46542,0.23271 -1.39678,0.69892 -2.32764,0.93163 -1.86171,0.69815 -7.44649,3.25773 -10.00634,4.88673 -4.42156,2.55984 -9.30775,6.0506 -14.66016,10.47216 -1.39628,1.16356 -2.79385,2.32783 -3.25927,2.56055 -1.16358,0.93085 -8.37637,7.21328 -8.8418,7.67871 -0.46543,0.46542 -1.86172,1.86153 -3.49072,3.25781 -1.629,1.62899 -5.12033,4.6543 -7.68018,6.98145 -2.55985,2.55985 -6.28321,6.28302 -8.61035,8.37744 -2.32714,2.09442 -4.88731,4.42149 -5.58545,5.11963 -0.69814,0.69813 -3.02541,3.02521 -5.35254,5.11962 -6.7487,6.28328 -8.37725,7.91309 -8.14453,7.91309 0.69814,0.69814 27.69231,1.3956 33.97559,0.93018 3.72342,-0.23272 4.65547,-0.23272 4.88818,0 0.23271,0.46542 0.23173,0.4666 -1.16455,1.39746 -0.69814,0.46543 -1.3962,0.93017 -1.62891,0.93017 0,0 -0.46474,0.23312 -0.93018,0.46583 -1.86171,0.69813 -3.25879,1.39618 -4.42236,1.6289 -0.69814,0.23271 -1.6293,0.69747 -2.09472,0.93018 -0.46543,0 -3.02434,0.93097 -5.8169,1.86181 -2.79257,0.93087 -5.58584,1.86202 -6.05127,2.09473 -0.46543,0 -1.16368,0.46582 -1.86181,0.46582 -0.46542,0.23271 -1.16349,0.46456 -1.62891,0.69727 -0.93086,0.23271 -2.32696,0.69912 -3.25782,1.16454 -0.46542,0 -1.16327,0.23164 -1.39599,0.46436 -0.23271,0 -1.16367,0.2333 -1.86182,0.69873 -0.93085,0.23271 -1.8622,0.69874 -2.32763,0.69874 -0.46544,0.23271 -0.93018,0.46435 -0.93018,0.46435 -0.23271,0.23271 -0.46601,0.23291 -0.69873,0.23291 -0.23271,0 -0.69766,0.2331 -1.16309,0.46582 -0.46542,0.23271 -1.39678,0.69746 -2.32763,0.93017 -5.35242,2.32714 -12.10003,5.58635 -16.05616,8.37892 -2.79256,1.62899 -2.32833,1.39503 -4.88818,3.72216 -2.55985,2.32714 -4.18801,3.02529 -7.67871,3.49072 -1.86171,0.23271 -2.56037,0.23271 -5.81836,0 -2.09443,-0.23272 -4.18837,-0.69726 -4.65381,-0.69726 -0.46542,-0.23273 -1.62988,-0.46622 -2.79346,-0.93164 -1.16356,-0.23271 -2.32617,-0.69727 -2.32617,-0.69727 -0.23271,-0.23271 -0.69912,-0.2331 -1.16454,-0.46582 -0.46542,0 -1.16328,-0.23311 -1.396,-0.46582 -0.23271,0 -1.39571,-0.46494 -2.792,-1.16309 -1.16356,-0.46542 -2.32783,-0.93037 -2.56054,-1.16308 -0.23272,0 -1.62842,-0.69912 -2.792,-1.16455 -3.25798,-1.62899 -4.88644,-2.55871 -9.77343,-5.58399 -5.35241,-3.25799 -5.11974,-3.02588 -6.98145,-4.18945 -1.62899,-1.16357 -2.32822,-1.62911 -3.02637,-1.86182 -0.23271,-0.2327 -0.93057,-0.69745 -1.39599,-0.93017 -0.46543,-0.23271 -0.93038,-0.46602 -1.16309,-0.69873 -0.23272,-0.23271 -0.93057,-0.46602 -1.39599,-0.69873 -0.46543,-0.46543 -0.93184,-0.69747 -1.16455,-0.93018 -0.46543,0 -1.39512,-0.69765 -2.09326,-1.16309 -3.4907,-1.86171 -5.58564,-2.79325 -5.81837,-2.56054 -0.69813,0.46542 -0.93144,2.09493 -0.69873,5.81835 0,4.18886 0.93117,8.84222 2.09473,12.79835 0.69815,2.79257 1.86221,6.0506 2.32764,6.98144 0.23271,0.46543 0.23291,0.93165 0.23291,0.93165 0,0.2327 0.23145,0.69746 0.23145,0.93017 0.23271,0.23271 0.46622,1.16367 0.93164,1.86181 0.46543,1.629 0.69785,1.86173 1.39599,3.49073 0.23272,0.69815 0.69766,1.86259 1.16308,2.79345 0.23273,0.93085 0.93185,2.09385 1.16456,2.792 0.46543,0.93085 0.93058,2.09405 1.396,3.0249 0.69813,1.86171 3.49023,7.44757 4.6538,9.542 3.72342,6.51597 5.58595,9.07568 7.91309,10.23925 1.62899,0.69814 2.32617,2.09376 2.32617,4.4209 0,1.86171 -0.69825,3.0249 -1.86181,3.0249 -0.93086,0 -4.42101,-1.86172 -6.28272,-3.49072 -1.629,-1.16357 -2.79289,-2.32639 -5.58545,-6.04981 -0.69814,-0.93086 -4.42149,-6.51553 -5.11963,-8.14452 -0.69814,-0.93086 -1.39638,-2.55968 -1.86182,-3.25782 -0.46543,-0.93086 -1.16348,-2.32823 -1.6289,-3.02637 -0.23272,-0.93085 -0.93057,-2.09404 -1.396,-3.0249 -0.93085,-2.09442 -1.86093,-4.18936 -2.55908,-5.81836 -0.23271,-0.93085 -0.69893,-1.86075 -0.93164,-2.32617 -0.23271,-0.46543 -0.46455,-1.16368 -0.69726,-1.86182 -0.93087,-2.55985 -1.39766,-3.25839 -1.63038,-3.95654 -0.23271,-0.46542 -0.46435,-1.16348 -0.46435,-1.62891 -0.23273,-0.46543 -0.23312,-0.93038 -0.46583,-1.16309 -0.23271,0 -0.2329,-0.2331 -0.2329,-0.46581 0,-0.46542 -0.23312,-0.93057 -0.46583,-1.396 0,-0.46543 -0.69765,-2.09463 -1.16308,-3.72363 -1.16357,-3.72342 -1.86202,-5.81856 -2.09473,-6.05127 0,-0.23273 -0.2329,-0.46456 -0.2329,-0.69727 0,-0.23272 10e-4,-0.93184 -0.23145,-1.16454 -0.23271,-0.46544 -0.93204,-1.62843 -1.39746,-2.792 -1.629,-4.42156 -4.886628,-9.77335 -6.515628,-11.40234 -0.465427,-0.46544 -1.628422,-1.39679 -2.791987,-2.32764 -2.327138,-1.629 -3.49053,-3.02529 -3.257813,-3.49073 0.23271,-0.23271 0.231443,-0.46581 0.231443,-0.46581 0,-0.23272 1.861725,-1.3964 3.490725,-1.86182 0.930855,-0.46543 1.86291,-0.46562 4.88818,-0.23291 3.72342,0 5.11886,0.2335 7.67871,0.93164 0.69814,0.23271 1.3962,0.46582 1.62891,0.46582 0.23271,0 0.93057,0.23164 1.39599,0.46435 0.46543,0 1.39678,0.46602 2.32764,0.69873 0.69814,0.23273 1.86221,0.69746 2.32764,0.93018 0.69813,0.23271 1.6293,0.46602 2.09472,0.69873 0.93085,0.46543 2.79151,1.16349 3.95508,1.62891 4.65427,2.09443 13.49787,6.51632 17.91943,9.07617 0.69815,0.46542 1.3962,0.93018 1.62891,0.93018 0,0 1.39592,0.69805 3.0249,1.6289 1.629,0.93086 3.72442,2.32803 4.65527,2.79346 1.16357,0.69814 2.32677,1.39619 3.02491,1.62891 1.86171,1.16357 7.21388,3.72256 8.37744,4.18798 3.258,1.16357 4.42139,1.39746 6.74854,1.39746 4.42156,0 9.30851,-2.32785 12.10107,-6.05126 0.23271,-0.46544 0.69873,-1.16309 0.69873,-1.16309 0,-0.23271 0.23164,-0.46622 0.46435,-0.93164 0.23271,-0.69814 0.46583,-1.3961 0.46583,-3.25781 0,-2.09444 -0.23204,-2.32628 -0.93018,-4.18799 -2.32713,-4.18885 -7.91305,-8.37816 -20.01416,-14.42871 -5.58513,-2.79256 -15.82355,-7.21348 -17.91797,-7.91163 -0.23272,0 -1.16368,-0.23329 -1.86181,-0.69873 -0.93087,-0.23271 -1.86221,-0.46601 -2.32764,-0.69873 -0.46543,0 -0.93057,-0.23164 -1.396,-0.46435 -0.69814,-0.23271 -2.7923,-0.93203 -4.88672,-1.39746 -0.93084,-0.23271 -2.0955,-0.69746 -3.02637,-0.93018 -0.69813,-0.2327 -1.6291,-0.2329 -1.86181,-0.2329 -0.23272,0 -1.16241,-0.2331 -2.09326,-0.46583 -3.49071,-0.69814 -9.77376,-1.62909 -15.35889,-1.86182 -1.86171,-0.23271 -4.19023,-0.46435 -5.1211,-0.46435 -0.93084,-0.23272 -6.283225,-0.23291 -12.101065,-0.23291 -12.799253,-0.2327 -20.943497,0.23283 -28.623047,1.86182 -5.585128,1.16356 -7.679587,2.55937 -6.981446,4.65381 0.232714,0.46541 2.327744,4.42178 4.189454,7.21435 0,0 0.697659,1.16388 1.163085,2.09472 0.698142,0.93087 1.860942,2.79152 2.559082,3.95508 0.930855,1.39629 2.095119,3.02589 2.560547,4.18946 0.698141,0.93085 1.860941,2.79277 2.559082,3.72363 1.396282,2.09442 4.888378,7.91221 5.121095,8.61035 0.23271,0.23273 0.46455,0.69766 0.697268,1.16309 0.465427,0.46543 1.163475,1.86133 1.628902,3.02491 0.698145,0.93084 1.396193,2.32782 1.62891,2.56054 1.163565,2.09442 5.352053,10.93742 6.515625,13.72998 0.46542,0.93086 0.93183,2.09512 1.164548,2.56054 0.465427,1.16358 1.628032,4.4216 2.32617,6.98145 0.232717,1.39629 0.698932,3.25694 0.931642,3.95508 0.232718,0.93085 0.697463,2.09511 0.930173,2.56055 0.232717,1.16356 1.396395,4.6546 1.861822,5.58544 0.23271,0.46543 0.466013,1.16368 0.69873,1.86182 2.559848,6.05056 5.817308,10.93694 9.773433,14.89306 1.86171,1.629 6.98155,5.81788 8.84326,6.98146 4.65428,2.79255 7.4474,4.42159 12.79981,6.98144 3.95613,1.86171 12.3333,4.88672 13.26416,4.88672 0.46542,0 0.69873,1.9e-4 0.69873,0.23291 0.23271,0.2327 0.93095,0.46582 1.86182,0.46582 0.69813,0.23272 1.86093,0.46436 2.55908,0.46436 7.44682,1.62899 13.96252,0.93181 16.98779,-2.32617 1.86171,-1.629 3.95724,-5.58617 6.51709,-11.63673 0.23271,-0.69814 0.46455,-1.39492 0.69727,-1.86035 0.23271,-0.46542 0.69873,-1.39639 0.69873,-1.86182 4.88697,-12.56652 8.37737,-18.15216 13.49706,-21.41015 2.09442,-1.16357 6.28322,-4.1883 8.61036,-6.28272 2.32713,-2.09442 5.58555,-4.42188 7.44726,-5.58544 2.32714,-1.39628 7.44619,-3.72364 7.91163,-3.72364 0,0 0.4662,-0.23311 0.93164,-0.46582 1.39627,-0.69815 3.02424,-1.1626 7.4458,-2.32617 1.62899,-0.46543 6.05109,-1.16494 9.30908,-1.63037 3.72342,-0.69814 13.49748,-0.69688 17.45361,-0.23145 4.65427,0.69814 8.37834,1.39513 11.1709,2.09326 0.93086,0.23272 2.32676,0.46602 3.0249,0.69873 0.69814,0.23272 1.6293,0.46602 2.09473,0.69873 1.62899,0.69816 2.32589,0.93058 3.72217,1.396 0.69814,0.46542 1.62949,0.93038 2.32763,1.16309 0.69815,0.46542 1.86241,0.93057 2.56055,1.39599 3.72342,1.86171 7.67913,4.88733 11.63526,9.07617 2.32713,2.32715 3.72294,4.1883 4.6538,6.28273 0.23271,0.69813 0.69874,1.39765 0.69874,1.63036 0.93084,1.86171 1.16328,4.65415 1.39599,13.72998 0.23271,9.77397 0.46494,13.03077 1.16309,14.19433 1.16356,1.86171 1.86214,2.09493 7.44726,2.32764 4.18885,0.23271 5.12003,0.69825 5.58545,1.86182 0.23272,1.39628 -0.93059,2.79201 -4.88672,6.28272 -2.32714,2.09442 -2.56102,2.79365 -1.39746,3.02636 0.93086,0.23273 6.98174,-3.9e-4 9.07617,-0.46581 0.93085,0 4.6553,-0.23292 8.146,-0.23292 6.05056,0 6.05059,3.9e-4 6.98145,0.46582 1.86171,1.39628 0.46501,3.49036 -3.95655,6.51562 -5.1197,3.258 -9.77444,4.65381 -14.42871,4.65381 -6.28327,0 -11.40284,-3.25812 -13.72998,-8.84325 -0.23271,-0.46544 -0.46602,-1.39493 -0.69873,-1.86035 -0.23272,-0.23272 -0.46436,-0.69893 -0.46436,-0.93165 0,-0.23271 -1.39658,-2.55967 -2.09473,-3.25781 -0.69813,-0.46543 -1.86113,-0.93144 -2.79198,-0.69873 -2.09442,0.46543 -4.18947,2.32738 -7.68018,7.21435 -2.09442,2.55985 -7.91173,8.61027 -9.77344,10.23926 -3.25799,2.55985 -5.35363,3.95665 -8.3789,5.81836 -1.39629,0.69814 -2.55927,1.3962 -2.792,1.62891 -1.86169,0.93086 -8.37715,3.95547 -9.77344,4.42089 -0.46542,0 -1.16348,0.23312 -1.6289,0.46583 -0.46543,0.23271 -1.3964,0.46602 -1.86182,0.69873 -2.55985,0.93085 -6.98146,1.6291 -10.47217,1.86181 -2.79256,0 -7.44796,-0.46641 -10.00781,-1.16454 -0.69814,-0.23271 -1.62763,-0.46437 -1.86035,-0.46437 -0.23271,0 -0.93223,-1.9e-4 -1.63037,-0.2329 -0.69814,-0.23271 -1.86115,-0.69893 -2.79199,-0.93164 -1.39629,-0.46543 -4.18869,-1.39553 -6.74854,-2.55909 -2.09442,-0.93086 -11.86836,-5.81855 -12.10107,-6.05127 -0.23271,-0.23271 3.9e-4,-0.23163 0.46582,-0.46435 h 20.71143 c 25.83121,0.23272 28.62405,-5e-4 33.27831,-2.32763 1.39629,-0.46544 5.35147,-4.42169 5.8169,-5.35254 0.46542,-1.39628 -0.23186,-1.86115 -4.18799,-2.792 -3.25799,-0.69814 -6.28391,-0.93204 -11.1709,-1.39746 -2.32713,0 -4.18945,-0.23291 -4.18945,-0.23291 -0.23271,-0.23271 -3.48987,-0.23164 -7.67871,-0.46436 -18.61709,-0.69814 -27.22726,-1.16386 -30.95068,-2.09472 -5.11971,-0.93085 -7.44777,-2.09416 -9.77491,-4.88672 -4.18885,-4.88699 -6.98135,-6.98145 -8.61035,-6.98145 -2.79256,0 -5.11857,4.42075 -5.58399,11.16944 0,2.79257 0.23165,8.1459 0.46436,9.7749 0.23272,0.46543 0.69892,2.09424 0.93164,3.25782 0.23271,1.39627 0.69727,2.55908 0.69727,2.55908 0.23271,0.2327 0.23291,0.46601 0.23291,0.69873 0,0.46543 0.23311,0.93056 0.46582,1.39599 0.23271,0.46544 0.69746,1.39678 0.93017,2.32764 0.93086,2.09442 4.18878,8.37736 5.11964,10.00635 0.23271,0.46543 0.93222,1.6297 1.63036,2.56055 2.32715,3.72341 4.88675,6.98096 8.37745,11.63525 3.02527,3.4907 4.18811,4.65393 9.54052,10.00635 5.58513,5.58513 9.30814,8.84278 15.12598,13.49706 1.39628,1.16356 2.79365,2.32764 3.02636,2.32764 0.23271,0.23272 0.93078,0.69765 1.62891,1.16309 0.69814,0.69814 1.39619,1.16455 1.62891,1.16455 2.32713,2.09442 17.68575,11.86788 20.2456,13.26416 0.23271,0 0.93057,0.46601 1.396,0.69873 0.46543,0.23271 2.79249,1.62842 5.11963,2.792 2.32714,1.16356 4.42257,2.32763 4.65528,2.32763 0.46542,0.23271 3.49026,1.62794 8.14452,3.95508 0.69814,0.23271 1.6295,0.69892 2.32764,0.93164 1.39628,0.69814 3.25753,1.39658 4.65381,2.09473 0.69814,0.23271 1.62921,0.69805 3.72363,1.6289 0.46543,0.23272 1.6293,0.46474 2.09473,0.93018 0.69814,0.2327 1.39619,0.46582 1.6289,0.46582 0,0 0.46436,2e-4 0.46436,0.23291 0.23272,0 1.16386,0.46455 2.09473,0.69726 0.93084,0.23271 1.86201,0.69873 2.09472,0.69873 1.39629,0.69815 6.05061,2.09425 10.47217,3.25781 3.258,0.93087 8.14454,1.86221 11.63525,2.32764 4.88699,0.46543 11.17044,0.23212 15.82471,-0.69873 3.95613,-0.93086 7.2145,-2.09493 16.05762,-5.81835 4.18884,-1.629 5.11995,-2.09397 10.70508,-4.65382 1.16356,-0.46541 2.55967,-1.16347 3.25781,-1.62891 1.62899,-0.69813 13.49766,-6.2831 14.1958,-6.74852 0.23271,-0.23272 3.72278,-1.86213 7.91162,-3.95655 7.91227,-4.18885 9.77482,-5.11896 11.40381,-6.04981 0.93086,-0.46542 3.02433,-1.62881 5.8169,-3.25781 0.93085,-0.46542 2.09511,-1.16474 2.56054,-1.39746 0.69814,-0.46543 1.16309,-0.69727 1.16309,-0.69727 0.46543,0 8.84288,-5.11993 11.86816,-7.21435 5.1197,-3.25799 9.54102,-6.74864 11.86817,-8.61035 7.44682,-6.28327 12.79963,-11.40315 16.05761,-15.82471 0.69815,-0.69814 1.16329,-1.396 1.396,-1.396 0,0 1.39717,-1.86212 2.79346,-3.95654 3.02526,-3.72342 5.35186,-7.4459 6.28271,-9.30761 0.46543,-0.69815 0.93057,-1.62951 1.396,-2.32764 0.46542,-0.93086 0.93184,-1.86241 1.16455,-2.56055 0.23272,-0.46543 1.16348,-2.09444 1.6289,-3.49072 0.69814,-1.16357 1.396,-2.55928 1.396,-2.79199 0.23272,-0.46543 0.46475,-1.16368 0.93017,-1.86182 0.23271,-0.69814 0.46583,-1.39619 0.46583,-1.6289 0,-0.23272 1.9e-4,-0.46583 0.2329,-0.46583 0,-0.23272 0.23312,-0.46475 0.46583,-0.93017 0,-0.46543 0.2329,-1.16329 0.2329,-1.396 0.46544,-0.46543 0.93078,-2.09483 1.62891,-3.95654 0,-0.69814 0.46436,-1.6293 0.46436,-2.09473 0.69814,-2.32713 1.39639,-4.65411 1.86181,-6.74853 0.23271,-1.16357 0.69893,-2.79259 0.93165,-3.49073 0.23271,-0.93084 0.46454,-2.32715 0.69726,-3.49072 0.23271,-1.16357 0.69894,-2.79258 0.93164,-3.49072 0,-0.93085 0.46456,-2.32715 0.69727,-3.49072 0.69814,-3.258 2.32842,-9.07608 3.25928,-10.70508 1.629,-3.95613 2.55937,-5.58449 4.6538,-7.91163 1.39628,-1.39629 4.18818,-3.72363 4.4209,-3.72363 0.23271,0 0.93097,-0.4662 1.86182,-0.93164 0.93086,-0.69814 2.32676,-1.39619 3.0249,-1.6289 0.93086,-0.46543 2.55986,-1.16348 3.49073,-1.62891 1.16356,-0.69814 2.56094,-1.16329 3.02636,-1.396 1.629,-0.69813 9.77315,-4.65459 11.16943,-5.58544 0.93085,-0.46544 1.86221,-1.16329 2.32764,-1.396 0.46542,-0.46543 0.93018,-0.69727 0.93018,-0.69727 0.23271,0 1.39716,-0.69951 2.79345,-1.63037 9.30855,-6.51598 16.52289,-13.72925 22.80615,-23.27051 1.86171,-3.02528 3.95588,-7.44708 4.88673,-10.70508 0.23271,-0.69813 0.46455,-1.8622 0.69726,-2.32763 0.69814,-2.09442 1.6297,-8.61039 2.56055,-15.5918 0.93086,-8.84312 1.16308,-11.63477 1.16308,-12.79834 0,-0.93085 2.1e-4,-2.0953 0.23292,-2.79346 0,-0.93084 0.2331,-2.79189 0.46581,-4.42089 0.93087,-9.77397 2.79249,-20.24613 5.11963,-26.06396 0.23273,-0.46544 0.46602,-1.16368 0.69873,-1.86182 0.69815,-1.86171 0.93068,-2.09486 3.25781,-7.44727 0.46544,-1.16357 1.62804,-3.25772 2.32618,-4.88672 5.35241,-10.2394 10.70507,-21.40908 10.70507,-21.87451 0,-0.23272 -0.23184,-0.46621 -0.69726,-0.93164 -0.58179,-0.34907 -3.14255,-0.52315 -6.28418,-0.55225 z m -33.9331,25.95264 c 3.048,-0.11772 3.91269,2.14725 2.28369,6.01611 -0.93085,2.55986 -1.62774,3.95588 -3.72217,8.37744 -1.86171,3.95613 -2.09571,4.18967 -3.25928,7.91309 -1.16357,3.49071 -2.09385,6.98038 -2.79199,10.93653 -0.93086,3.49069 -0.93038,4.42188 -1.16309,5.58544 0,0.46544 -0.2331,2.09426 -0.46581,3.25781 -0.46544,3.02529 -0.93037,6.74934 -1.1631,11.1709 -0.23271,1.86171 -0.46581,3.95586 -0.46581,4.88673 -0.23272,0.69813 -0.46582,2.09531 -0.46582,2.79345 0,0.69814 -2e-4,1.86094 -0.23291,2.55908 0,0.69814 -0.23165,2.32716 -0.46436,3.49072 -0.23272,2.09444 -0.2337,2.79221 -1.16455,6.51563 -2.09442,9.07583 -6.98112,15.36021 -20.47851,25.59961 -1.39629,1.16357 -3.2586,2.55967 -4.18946,3.25781 -1.86171,1.39628 -7.44591,5.35185 -9.30762,6.28272 -0.69814,0.46542 -2.32695,1.16349 -3.25781,1.6289 -2.09442,0.93086 -4.42188,1.39708 -5.58545,0.93164 -0.46543,0 -0.93057,-0.46621 -1.39599,-0.93164 -0.46543,-0.69814 -0.46582,-0.93048 -0.46582,-3.0249 0,-4.42156 1.62951,-7.21505 5.81836,-9.7749 1.86171,-1.39628 6.51601,-3.72217 6.98144,-3.72217 0.23271,0 0.46456,-2e-4 0.69727,-0.23291 0.23271,0 0.93115,-0.46602 2.09472,-0.69873 0.93087,-0.46543 2.55968,-0.93056 3.25782,-1.396 0.93086,-0.46542 1.86181,-0.69873 1.86181,-0.69873 0,0 1.16427,-0.69805 2.56055,-1.6289 4.88699,-3.4907 9.54102,-8.84232 11.86816,-14.66016 0.23271,-0.93085 0.69727,-1.86202 0.69727,-2.09473 1.39628,-3.25798 3.02549,-9.30793 3.72363,-14.89306 1.16357,-10.00668 0.93172,-30.71957 -0.69726,-36.30469 -0.23273,-0.93086 -0.46622,-1.16309 -0.93164,-1.16309 -0.46542,0 -1.86174,0.69845 -3.49073,2.09473 -0.46543,0.46543 -1.62931,1.16348 -2.09473,1.62891 -0.69813,0.69814 -1.86093,1.6295 -2.55908,2.32764 -0.93085,0.69813 -1.8622,1.62784 -2.32763,2.09326 -1.86171,1.62899 -6.51509,6.05053 -16.28906,15.59179 -5.35242,5.58513 -10.47276,10.70567 -11.1709,11.40381 -2.32715,1.86171 -5.35226,4.65479 -6.74854,5.81836 -4.88699,4.42156 -9.77345,7.91173 -13.26416,9.77344 -5.58512,2.55985 -6.28466,3.95588 -5.12109,8.37744 1.16356,3.95614 1.16356,5.35254 0,5.35254 -0.93086,0 -3.72327,-1.39629 -6.74854,-3.49073 -4.65428,-3.02526 -6.28223,-4.42148 -7.4458,-5.11962 -0.93085,-0.93085 -3.95713,-3.0251 -4.65528,-3.25782 -0.23271,0 -0.69765,-0.46601 -1.16308,-0.69873 -0.46543,-0.23271 -0.93038,-0.69726 -1.16309,-0.69726 -0.23271,-0.23271 -1.39658,-0.69912 -2.09472,-1.16455 -1.39628,-0.93086 -9.77462,-5.11856 -11.1709,-5.58399 -0.46543,-0.2327 -1.16368,-0.46621 -1.86182,-0.93164 -0.69813,-0.23271 -1.62783,-0.69745 -2.09326,-0.93018 -0.46543,0 -0.93184,-0.2329 -1.16455,-0.2329 0,0 -0.46475,-0.2331 -0.93017,-0.46583 -0.46544,-0.23271 -0.93185,-0.46581 -1.16456,-0.46581 -0.23271,0 -0.46455,-1.9e-4 -0.69726,-0.23292 0,0 -0.46621,-0.23144 -0.93164,-0.23144 -0.69814,-0.23271 -1.16329,-0.2331 -1.396,-0.46582 -0.69813,-0.23271 -3.95547,-1.39599 -4.42089,-1.39599 -0.23271,0 -0.46623,-2e-4 -0.93165,-0.23292 -0.23271,0 -1.1626,-0.46602 -2.32617,-0.69872 -0.93085,-0.46543 -2.32803,-0.69748 -2.79345,-0.93019 -0.46544,-0.2327 -0.93038,-0.46581 -1.16309,-0.46581 -0.23272,0 -0.46582,-2.1e-4 -0.46582,-0.23292 -0.23271,0 -0.46476,-0.2329 -0.93018,-0.2329 -1.16357,-0.23273 -4.65527,-2.09347 -4.65527,-2.32618 0,0 1.9e-4,-0.46602 0.23291,-0.69873 0.46542,-0.23272 1.16378,-0.2329 3.72363,-0.2329 1.86171,0 3.95587,1.8e-4 4.88672,0.2329 0.93086,0 2.55986,0.2331 3.49072,0.46583 2.32713,0.23271 6.05138,0.93037 7.91309,1.16308 0.69814,0.23272 2.09424,0.46602 3.25781,0.69873 1.16357,0.23272 2.55986,0.69747 3.49073,0.93017 5.81784,1.39629 10.00605,2.55948 11.40234,3.02491 0.46542,0.23271 0.93184,0.46582 1.16455,0.46582 0.46543,0 4.18889,1.62862 6.98144,3.0249 4.42156,2.09442 10.00646,3.95654 11.86817,3.95654 1.86171,0 3.72367,-1.16359 10.70508,-6.98144 3.95613,-3.25799 4.88636,-4.18831 11.40234,-9.77344 4.18884,-3.72342 5.35245,-4.65538 6.98145,-6.51709 0.69814,-0.46543 2.56046,-2.32589 4.18945,-3.72216 1.629,-1.62899 3.48965,-3.2582 3.95508,-3.72364 3.72341,-3.4907 6.28301,-5.81846 8.37744,-7.68017 1.16357,-0.93085 2.32764,-1.86202 2.32764,-2.09473 0.23271,-0.23271 1.62881,-1.39571 3.25781,-2.79199 1.62899,-1.3963 3.02509,-2.79199 3.25781,-2.79199 0,0 0.69932,-0.46641 1.39746,-1.16456 0.69814,-0.46542 1.3962,-1.16329 1.6289,-1.396 3.02529,-2.79255 14.19468,-11.17071 19.77979,-14.4287 1.629,-1.16356 6.98243,-3.48946 8.146,-3.72217 0.5236,-0.11636 1.00305,-0.1824 1.43848,-0.19922 z m -136.64649,79.35059 c 2.9671,0.0291 5.93561,0.31909 8.61182,0.90087 1.86171,0.46543 8.37695,2.32823 9.54052,3.02637 0.46543,0.23271 1.6295,0.69747 2.32764,0.93018 2.79256,1.39629 7.91212,3.95625 10.23926,5.35254 6.28327,3.72342 9.54094,6.28264 13.49707,11.40234 2.09443,2.55985 2.79191,3.72473 4.4209,6.75 3.95613,8.3777 4.65419,16.75433 1.6289,23.0376 -0.93086,1.86171 -1.3957,2.56046 -2.79199,4.18945 -0.93085,0.93086 -3.48985,2.79219 -4.18799,3.0249 -0.23271,0.23271 -0.69912,0.46602 -1.16454,0.69873 -1.39629,0.93086 -5.58517,3.02511 -6.98145,3.25781 -0.23271,0.23273 -0.69727,0.46583 -0.69727,0.46583 -0.46543,0.23271 -9.3088,3.25673 -10.70507,3.72217 -0.69815,0 -1.86241,0.46601 -2.56056,0.69873 -0.93084,0.23271 -2.32676,0.46602 -3.0249,0.69873 -0.93084,0.23271 -1.62909,0.46435 -1.86181,0.46435 0,0 -0.93077,0.23311 -1.62891,0.46582 -1.86171,0.23273 -8.14424,1.3964 -9.54053,1.86182 -0.69813,0 -2.0955,0.23311 -3.02637,0.46582 -0.93084,0 -2.55987,0.23164 -3.49071,0.46435 -3.02529,0.46543 -9.54026,0.93204 -14.42725,1.39746 -5.35241,0.23272 -13.73068,0.46563 -16.29053,0.23292 -10.47211,-0.46542 -14.19494,-2.09564 -18.38379,-8.37891 -0.69814,-0.93085 -1.6291,-2.09385 -1.86181,-2.79199 -0.93086,-1.629 -5.58584,-10.7048 -6.05127,-12.10108 -0.23271,-0.69814 -0.69727,-1.6291 -0.69727,-1.86181 -0.46543,-0.69814 -1.16455,-3.72315 -1.16455,-4.88672 0,-1.16357 0.69912,-3.95587 1.16455,-4.88672 0,-0.23272 0.46495,-1.16407 1.16309,-2.32764 1.16357,-2.32714 1.16339,-2.55997 3.25781,-5.35254 3.25799,-4.42156 6.74845,-7.91242 11.86816,-12.33398 1.39629,-1.16357 6.0507,-4.65392 8.84327,-6.51563 4.42156,-3.02527 9.07658,-5.81827 13.03271,-7.44727 0.46543,-0.2327 1.16348,-0.69726 1.6289,-0.69726 0.46544,-0.23271 0.69747,-0.46582 0.93018,-0.46582 0.23271,0 0.69766,-0.23291 1.16309,-0.23291 1.62899,-0.93086 5.58508,-1.86094 8.61035,-2.55908 2.67621,-0.46543 5.64325,-0.69853 8.61035,-0.66943 z m -3.95508,10.44287 c -9.07584,0 -14.42806,0.93087 -22.34033,3.49072 -2.79256,0.93085 -8.14503,3.49063 -10.47217,5.11963 -0.93084,0.69814 -1.6291,1.16309 -1.86181,1.16309 -0.23271,0 -3.259,2.32754 -4.65527,3.95654 -0.93087,0.93085 -2.32697,2.32715 -3.25782,3.49072 -0.93086,1.16357 -1.62911,2.09472 -1.86182,2.09472 L 318,246.44092 c 0,0.23271 -0.2333,0.69786 -0.69873,1.396 -0.23271,0.69813 -0.93057,2.09404 -1.396,3.02489 -1.86171,4.18886 -1.86181,4.189 -1.86181,8.84327 0,3.95613 -8.8e-4,4.421 0.69726,6.28271 0.69814,2.09442 2.79337,5.58556 4.42236,7.44727 1.39629,1.39629 5.11993,4.18858 7.21436,4.88671 2.55985,1.16358 2.79191,1.39639 4.4209,1.86182 0.69815,0.23271 1.8624,0.69874 2.56055,0.69874 0.46542,0.23271 2.55919,0.46455 4.4209,0.69726 1.86171,0.23272 3.4911,0.23311 3.95654,0.46582 3.72342,0.46543 23.50414,-1.16281 29.55469,-2.55908 0.46542,-0.23271 1.62822,-0.46583 2.55908,-0.46583 5.11969,-0.93084 8.14543,-1.39658 10.93798,-2.09471 0.46543,-0.23271 1.86241,-0.46603 2.56055,-0.69874 7.91227,-2.09443 12.56525,-3.72248 15.82324,-5.81689 0.23272,-0.23273 0.93184,-0.69874 1.16455,-0.69874 0.46544,-0.23272 1.39659,-0.69785 2.09473,-1.39599 3.25799,-2.55985 5.35186,-5.35237 6.28272,-8.61035 0.46543,-1.86171 0.46543,-3.25811 0,-5.35254 -0.93086,-4.65427 -3.02572,-7.67951 -7.44727,-12.10108 -2.09443,-1.86171 -5.11915,-4.18858 -6.28271,-4.88671 -0.23273,-0.23273 -1.86134,-0.93097 -3.02491,-1.86182 -1.629,-0.93086 -7.6798,-3.72295 -10.70507,-4.65381 -5.81784,-2.09442 -6.74936,-2.32822 -11.17091,-3.02637 -4.65427,-0.69814 -6.04992,-0.93017 -11.40234,-0.93017 z m -2.79345,4.18798 c 1.39628,0 1.86192,8e-4 3.72363,0.93165 5.81784,3.02528 10.00645,6.05031 11.86816,8.37744 0.69815,0.93086 1.3962,1.86201 1.62891,2.09472 0.69814,0.69814 2.09513,3.72336 2.56055,5.11963 0.23271,0.46544 0.69873,1.86154 0.69873,3.25781 0.46542,2.09443 0.46542,2.56046 0,4.18946 -0.46542,3.25799 -1.62941,5.11886 -3.95655,7.67871 -1.16357,1.39628 -3.95645,3.49111 -5.58545,3.95654 -2.32713,0.93085 -3.95665,1.3962 -5.81836,1.62891 -2.55984,0.69814 -3.49005,0.69814 -7.91162,0 -4.65427,-0.46542 -6.51612,-0.93155 -8.84326,-2.56055 -2.32714,-1.62898 -3.95567,-4.42043 -4.65381,-9.07471 -0.46542,-3.02527 -6.7e-4,-10.70469 0.93018,-13.72998 1.16357,-3.7234 3.2589,-6.28408 6.28418,-7.91308 0.93085,-0.46543 1.86181,-1.16309 1.86181,-1.16309 0.23271,-0.23271 0.46456,-0.46582 0.69727,-0.46582 0.23271,0 1.39698,-0.46494 2.56055,-1.16308 2.09442,-0.93086 2.55879,-1.16456 3.95508,-1.16456 z m -131.19141,8.63965 c -2.03625,0.0291 -4.01466,0.20382 -5.17822,0.43652 -3.49071,0.93087 -4.65392,1.16368 -6.51563,1.86183 -0.93086,0.23271 -2.09513,0.69873 -2.56054,0.69873 -0.46544,0.23271 -1.39532,0.46474 -2.32618,0.93017 -0.69814,0.23271 -1.62931,0.69873 -2.09473,0.69873 -0.46542,0.23271 -0.93183,0.46582 -1.16454,0.46582 0,0.23272 -0.23165,0.46436 -0.46436,0.46436 -0.23271,0 -0.93205,0.23282 -4.88818,1.86182 -3.49071,1.62899 -4.42141,2.09443 -6.74854,3.49072 -1.39628,0.93085 -2.55908,1.6289 -2.55908,1.6289 -0.46543,0 -3.72306,2.09502 -6.51563,4.18946 -3.258,2.55984 -4.42159,3.48995 -6.98144,6.0498 -1.39629,1.39628 -4.42236,5.58584 -4.42236,6.05127 0,0.23271 -0.23291,0.69747 -0.23291,0.93018 -1.16358,2.32713 -1.396,3.25841 -1.396,7.44727 0,2.55984 2e-4,4.18964 0.23291,4.42235 0.23272,0.23272 0.46582,0.69747 0.46582,0.93018 0.93086,3.02528 3.72364,6.28262 7.21435,7.91162 2.55986,1.16357 3.25725,1.6293 6.04981,2.09473 4.18885,1.16357 6.51662,1.39639 11.1709,1.86181 2.32713,0 5.35225,0.2331 6.74854,0.46583 3.49071,0.23271 16.28908,0.23271 19.77978,0 11.17026,-0.93087 14.19642,-1.39592 21.87597,-3.02491 2.79257,-0.46543 8.61075,-2.32804 9.07617,-2.79346 0.23271,0 0.46456,-0.2329 0.69727,-0.2329 0.69815,0 6.51612,-2.7919 8.84327,-4.4209 1.62898,-0.93086 5.81748,-4.8875 6.51562,-5.81837 2.09442,-4.18884 2.79307,-6.98106 2.32763,-10.00634 -0.23271,-0.93085 -0.46602,-1.86202 -0.69873,-2.09473 -0.93085,-2.09442 -1.1624,-2.55879 -2.09325,-3.95508 -1.39629,-2.09442 -6.0509,-6.51612 -9.07618,-8.84326 -1.62899,-1.16357 -2.79218,-2.09492 -3.0249,-2.32763 -0.93085,-0.69814 -7.68068,-4.42189 -10.00781,-5.58546 -1.39629,-0.69814 -2.79219,-1.16327 -3.0249,-1.39599 -1.86171,-0.93085 -9.07551,-3.2584 -13.49707,-3.95655 -1.39629,-0.34906 -3.49061,-0.4656 -5.52686,-0.43652 z m -6.55224,11.28662 c 3.25071,0 6.95889,0.26302 9.75146,0.78663 0.93086,0.23271 2.09512,0.46435 2.56054,0.46435 0.23271,0 1.16241,0.2331 2.09327,0.46582 4.18885,1.39628 5.81788,3.49105 6.98144,9.07618 0.69814,3.95613 0.4661,8.84221 -0.93017,12.79833 -1.39628,3.72342 -6.51644,6.51641 -14.42871,7.44727 -1.86171,0.23271 -7.21388,0.46563 -8.37745,0.23291 -3.25798,-0.69814 -5.58536,-1.86174 -7.21435,-3.49072 -1.629,-1.629 -2.09385,-2.32648 -2.79199,-4.4209 -1.39628,-3.72342 -1.16339,-14.42825 0.2329,-19.08252 0.69815,-2.79257 2.09477,-3.49132 9.07618,-4.18945 0.93086,-0.0582 1.9633,-0.0879 3.04688,-0.0879 z m 185.03173,41.5503 c 0.49088,-0.0109 0.76841,0.13537 0.88477,0.42627 0.23271,0.93086 -6.98264,6.98127 -11.86963,10.23926 -2.09442,1.39627 -8.8422,4.88671 -9.30762,4.88671 0,0 -0.46621,0.2331 -0.93164,0.46582 -0.69814,0.23271 -2.55998,0.69806 -5.35254,1.62891 -0.23272,0.23272 -1.16348,0.23311 -1.6289,0.46582 -0.69814,0 -1.62783,0.23164 -2.09327,0.46435 -2.09442,0.46542 -13.03302,0.46542 -15.12744,0 -0.46543,-0.23271 -1.39658,-0.46435 -2.09473,-0.46435 -0.69813,-0.23271 -1.62764,-0.2331 -1.86035,-0.46582 -0.23271,0 -1.39678,-0.46602 -2.32763,-0.69873 -0.93086,-0.46543 -2.09493,-0.69747 -2.32764,-0.93018 -0.23272,0 -1.39532,-0.4662 -2.32617,-0.93163 -1.86171,-0.69815 -5.58517,-2.55988 -6.98144,-3.49073 -0.46544,-0.23272 -1.16456,-0.46455 -1.16456,-0.69727 -0.93085,-0.23271 -3.48985,-2.32695 -4.18798,-3.25781 -0.69816,-0.93085 -0.69795,-1.39619 0.2329,-1.6289 0.93086,-0.23271 5.81672,-10e-4 9.07471,0.46435 1.39628,0.23271 3.95645,0.69894 5.58545,0.93164 1.629,0.23271 3.95606,0.46456 5.11963,0.69727 1.16357,0.23272 3.49083,0.69892 5.35254,0.93164 1.629,0.23271 3.72295,0.46454 4.65381,0.69727 0.93085,0 3.49141,0.2329 6.05127,0.2329 7.21413,0.23271 10.2395,-0.46555 20.94433,-5.35253 6.80688,-3.14164 10.20949,-4.58153 11.68213,-4.61426 z m -64.97314,26.66455 c 2.32713,0 4.42149,0.17388 5.11962,0.52295 2.09444,0.93086 2.32677,0.93096 3.02491,1.86181 1.39628,1.86171 1.16298,3.49151 -0.69873,4.42237 -1.16357,0.46543 -5.35196,1.16308 -8.14453,1.16308 -2.55985,0 -5.35285,0.46495 -7.44727,1.16309 -3.72342,1.39628 -9.30851,4.6543 -12.10107,6.98144 -1.39629,1.39628 -8.14483,6.51681 -10.23926,7.91309 -2.09442,1.39628 -3.25812,2.09404 -5.35254,3.02491 -0.69814,0.46542 -1.62909,0.69893 -1.86182,0.93164 -0.23271,0 -0.69746,0.23144 -0.93017,0.23144 -0.93086,0 -3.72295,-0.69746 -4.65381,-0.93017 -0.46542,-0.23271 -1.62969,-0.69893 -2.56055,-0.93164 -0.93085,-0.23273 -2.09493,-0.69727 -2.32764,-0.69727 -0.23271,-0.23272 -1.1624,-0.46621 -2.09325,-0.93165 -0.93086,-0.23271 -2.09493,-0.46455 -2.32764,-0.69726 -0.23272,0 -1.16368,-0.46602 -1.86182,-0.69872 -0.93086,-0.46544 -1.62931,-0.69748 -2.09473,-0.93019 -0.23271,0 -0.93076,-0.2333 -1.6289,-0.69873 -0.93085,-0.23271 -2.32756,-0.93076 -3.95654,-1.62891 -0.46544,1e-5 -1.1624,-0.46455 -2.09327,-0.69726 -0.69813,-0.23272 -1.6291,-0.69873 -1.86181,-0.69873 -1.629,-0.69814 -6.51673,-2.55967 -9.542,-3.25781 -0.93086,-0.46543 -1.8622,-0.69873 -2.32763,-0.69873 -0.93086,-0.46542 -3.25705,-0.93038 -5.81689,-1.16309 -3.258,-0.46543 -4.18966,-1.16445 -4.42237,-2.79345 0,-1.16357 0.69865,-2.55881 2.32764,-3.95508 3.258,-2.79257 9.07531,-4.65469 13.26415,-3.95654 1.629,0.46542 1.8628,0.46534 3.02637,1.6289 0.69814,0.69814 1.16309,1.62911 1.16309,1.86182 0,0.46543 3.95578,4.18937 6.51562,5.81836 3.258,2.09443 7.6798,4.42168 10.70508,5.35254 6.28327,2.09442 9.07639,2.32606 12.79981,0.46436 2.55985,-1.39629 3.72345,-2.09437 6.98144,-5.11964 3.95613,-3.72342 7.4466,-5.8174 11.86817,-8.14453 0.93085,-0.46543 2.09365,-0.93037 2.55908,-1.16308 0.46542,-0.23271 0.93164,-0.23292 0.93164,-0.23292 0.23272,0 0.69765,-0.2331 1.16309,-0.46581 1.629,-0.69815 5.35216,-1.86221 8.37744,-2.32764 1.62899,-0.34907 4.18995,-0.52295 6.51709,-0.52295 z m -41.42432,34.5 c 2.79257,0 3.02648,-4.8e-4 4.88819,1.16309 1.86171,0.93085 4.65391,2.79337 6.51562,4.42236 0.69814,0.69814 0.93017,1.16347 0.93017,1.62891 0,0.69814 9.7e-4,0.69765 -2.32617,1.16308 -1.39628,0.23271 -4.888,0.46582 -8.14599,0.46582 -5.58513,0.23272 -12.56622,0.69766 -13.49707,1.16308 -0.23271,0.23273 -0.69786,0.23312 -1.396,0.46583 -0.46543,0 -1.16329,0.23163 -1.396,0.46435 -4.18884,1.86171 -5.35205,2.79377 -6.51562,4.88819 -0.46542,0.93085 -0.46582,1.39591 -0.46582,3.0249 0.23271,1.39628 0.23224,2.09443 1.16309,3.49072 1.629,2.79256 4.42178,4.88711 7.21435,5.35254 3.72342,0.69814 9.77406,0.93106 17.45361,0.23291 0.93086,0 4.42073,-0.23311 7.67872,-0.46582 7.21412,-0.23272 13.73136,-6.7e-4 15.36034,0.93017 0.69816,0.23273 1.16309,0.46602 1.16309,0.69873 1e-5,1.629 -6.74928,3.25734 -19.78125,4.4209 -5.1197,0.69815 -15.59162,0.69815 -18.84961,0 -7.44684,-1.16356 -11.86827,-3.72258 -13.72998,-7.67871 l -0.93017,-1.86181 v -4.4209 c 0,-3.95613 0.23164,-4.88789 0.46435,-6.28418 1.16357,-3.4907 2.09523,-5.11974 4.42236,-6.98145 1.39629,-1.16355 4.88731,-3.02489 5.58546,-3.02489 0.23271,0 0.69765,-2e-4 1.16308,-0.23292 0.69814,-0.46542 2.5594,-1.1628 8.14453,-2.55908 1.16356,-0.23271 2.7923,-0.46582 4.88672,-0.46582 z m 94.1045,29.17676 c -1.59991,-0.0291 -3.11212,0.14541 -4.04298,0.61083 -2.79257,0.93087 -6.28361,4.1888 -9.07617,8.61036 -1.16357,1.39628 -5.11982,7.91221 -5.35254,8.61035 -0.23271,0.23272 -0.46622,0.69786 -0.93164,1.396 -0.46543,0.93084 -5.11914,10.23956 -6.28271,12.33398 -0.23272,0.93085 -0.93058,2.32696 -1.396,3.25781 -0.46543,0.93087 -0.69873,1.86182 -0.69873,1.86182 0,0.23271 -0.23311,0.46474 -0.46582,0.93018 -0.46543,1.39627 -2.32696,5.12013 -3.25781,7.44727 -0.23272,0.23271 -0.69766,1.62841 -1.16309,2.79198 -0.46543,1.39628 -1.16309,2.56075 -1.16309,2.79346 -0.69813,1.629 -1.16347,3.02442 -1.6289,4.18798 -0.23271,0.69815 -0.69893,1.39639 -0.93164,1.86183 0,0.46542 -0.46456,1.39658 -0.69727,2.09472 -0.23271,0.46543 -0.69873,1.39638 -0.69873,1.86182 -0.23272,0.46542 -0.69745,1.39639 -0.93017,1.86181 -0.23271,0.69814 -0.46601,1.6293 -0.69873,2.09473 -0.23271,0.46543 -0.46601,1.16368 -0.69873,1.86182 -0.23271,0.46543 -0.69747,1.62783 -0.93018,2.09326 -0.23272,0.69814 -0.46602,1.6293 -0.69873,2.09472 -0.23272,0.69816 -0.69746,1.39659 -0.93017,2.09473 -0.23271,1.16357 -0.93057,2.56027 -1.396,3.95654 0,0.46544 -0.2331,1.39639 -0.46582,1.86182 -0.23271,0.69814 -0.2331,1.3962 -0.46582,1.62891 0,0.23271 -0.46582,1.86172 -0.46582,3.49072 -0.69814,5.1197 0.46651,9.07589 3.02637,10.47217 1.16356,0.46543 3.72227,0.69814 5.58398,0 0.46543,-0.23271 1.86241,-0.46601 2.56055,-0.69873 3.02528,-0.93086 6.74846,-2.55978 11.86816,-5.11963 1.86171,-0.93085 4.42188,-2.32656 5.58545,-2.79199 2.32713,-1.16358 3.25832,-1.6295 5.58545,-2.32764 0.69815,-0.46543 1.62891,-0.69746 1.62891,-0.93018 0.2327,0 0.46455,-0.23291 0.69726,-0.23291 0.23272,0 0.69912,-0.2329 1.16455,-0.2329 1.16357,-0.46544 2.7921,-1.16349 4.65381,-1.62891 0.93086,-0.23271 2.09385,-0.69894 2.79199,-0.93165 0.69814,0 1.6293,-0.23163 2.09473,-0.46435 0.46543,0 1.39618,-0.23311 1.62891,-0.46582 3.25798,-0.93086 13.03185,-1.86162 17.2207,-1.62891 8.37769,0.46544 15.3595,2.32746 19.54834,5.58545 0.69814,0.46543 1.86113,1.39513 2.79199,2.09327 0.69814,0.46543 1.6293,1.39638 2.09473,1.86181 1.629,1.629 1.39715,2.56016 -0.69727,2.09473 -1.629,-0.23271 -7.68067,-1.62823 -10.00781,-2.55908 -3.95613,-1.16357 -5.5846,-1.62969 -9.77344,-2.56055 -3.95613,-0.69814 -11.63585,-0.46611 -15.82471,0.93018 -0.69814,0 -1.6291,0.23291 -1.86181,0.23291 -0.23271,0 -1.16348,0.2331 -1.62891,0.46582 -0.69814,0.23271 -2.56026,0.69765 -3.95654,1.16308 -1.62899,0.46542 -3.0253,0.93184 -3.49072,1.16455 -0.46543,0.23272 -1.62804,0.69747 -2.32617,0.93018 -0.93086,0.23271 -1.6291,0.69873 -1.86183,0.69873 -0.2327,0.23271 -0.46602,0.23291 -0.69873,0.23291 -0.23271,0 -0.69765,0.23165 -1.16308,0.46436 -0.46542,0.23271 -1.39658,0.69891 -2.09473,0.93163 -6.28327,2.79257 -9.54123,4.42112 -15.59179,8.14454 -8.14497,4.88699 -11.40277,7.44663 -18.84961,15.35888 -2.55985,2.79257 -3.72402,3.4916 -4.18946,2.79346 -0.46542,-0.69814 -2.55958,-1.39638 -4.88671,-1.86182 -4.65428,-1.16356 -16.52231,-2.32804 -25.59815,-2.79346 -8.37769,-0.46542 -22.34026,-1.39639 -27.45996,-1.86181 -1.62899,-0.23272 -4.4212,-0.46436 -6.51562,-0.46436 -1.86171,-0.23271 -4.42188,-0.46581 -5.58545,-0.46581 -7.44684,-1.16358 -18.84991,-1.62959 -20.94434,-0.69873 -2.79256,0.69813 -4.88653,2.55988 -8.14453,6.98144 -1.8617,2.32714 -2.32716,3.49123 -3.49072,5.81836 -1.39628,3.49071 -1.39639,3.72325 -1.86182,6.74853 -0.23271,2.55985 -0.23271,3.25872 0,6.05127 0.46543,3.02529 0.46515,3.72267 1.39599,6.0498 0.46544,1.39629 2.79299,5.81868 3.95655,7.9131 0.46543,0.69813 0.93038,1.62783 1.16309,2.09325 0.23272,0.23271 0.46455,0.46583 0.69726,0.46583 0.23272,0 2.09475,-1.86203 5.58545,-5.58545 4.42156,-5.35242 7.91213,-8.84317 10.23926,-10.47217 4.42156,-2.79256 7.21536,-3.72363 11.86962,-3.72363 4.42157,0 9.77366,1.16446 13.49708,2.79345 0.46543,0.23271 0.93037,0.46582 1.16308,0.46582 0.23271,0 3.49043,1.16368 4.88672,1.86182 0.69814,0.23272 3.72393,1.62823 5.81836,2.55908 0.93085,0.46543 2.09385,0.93038 2.79199,1.16309 0.46544,0.23271 1.8628,0.93204 3.02637,1.39746 5.58513,2.79257 6.51563,3.0249 6.51563,3.0249 0,0 0.93096,0.46476 1.86181,0.93018 0.93086,0.46543 2.32697,0.93203 3.25781,1.39746 0.69814,0.23271 2.559,0.93076 4.188,1.62891 1.39627,0.46542 3.25839,0.93037 3.95654,1.16308 3.95613,1.39628 7.44645,1.39541 18.61669,0.69727 4.887,-0.46544 4.88829,-0.46524 6.75,0.2329 1.39629,0.46542 2.09385,0.69806 2.792,1.62891 0.69814,0.93086 2.79199,4.42275 2.79199,4.88819 0,0.46541 0.93077,2.79258 1.62891,3.49072 0.69813,1.16357 2.32755,1.86074 3.95654,2.32617 1.629,0.23271 12.334,0.001 15.82471,-0.46436 1.16357,0 4.18848,-0.2331 6.51562,-0.46582 2.32713,0 5.11934,-0.2331 6.51563,-0.46581 1.16357,-0.23273 3.4917,-0.46583 4.65527,-0.46583 1.39628,-0.23271 3.72355,-0.46455 5.35254,-0.69727 1.39629,-0.2327 3.72315,-0.46601 4.88671,-0.69872 0.93087,0 2.09493,-0.23311 2.32764,-0.46582 0.23271,0 1.39572,-0.23164 2.792,-0.46436 6.51598,-0.93085 12.10148,-2.09551 16.05761,-3.02637 0.93086,-0.23272 2.32696,-0.46454 3.25781,-0.69726 11.63568,-2.79256 21.87512,-6.51691 26.06397,-9.77491 4.88698,-3.95612 8.84328,-9.07551 12.33399,-16.98779 0.23271,-0.69813 0.46435,-1.16327 0.46435,-1.39599 0,-0.23272 2e-4,-0.93057 0.23291,-1.39599 0.69814,-1.39629 1.6295,-4.65462 2.32764,-9.07618 0.69813,-3.95613 0.93105,-16.75529 0.23291,-20.71143 -0.93086,-4.18883 -1.6297,-7.44688 -2.56055,-10.47216 -0.23271,-1.16358 -0.46533,-1.86105 -1.62891,-4.4209 -0.69813,-2.09442 -2.55967,-6.05079 -3.25781,-7.21436 -0.46542,-0.46542 -0.69746,-1.16328 -0.93017,-1.39599 -0.69815,-1.39629 -1.86221,-3.49132 -2.32764,-4.18946 -0.46543,-0.46543 -1.16348,-1.6297 -1.6289,-2.56054 -0.46544,-0.93087 -1.62951,-2.32715 -2.32764,-3.49073 -0.69814,-0.93084 -1.86075,-2.32695 -2.32617,-3.25781 -0.69815,-0.69814 -1.16456,-1.39619 -1.16456,-1.6289 -0.23271,0 -1.86192,-2.32668 -3.72363,-4.65381 -1.629,-2.32713 -3.25781,-4.4211 -3.25781,-4.65381 -0.23272,0 -0.93097,-0.93116 -1.86182,-2.09473 -3.02528,-3.95614 -4.18857,-5.12061 -4.88672,-6.28418 -0.69814,-0.46543 -1.39658,-1.62803 -2.09473,-2.32617 -0.46542,-0.69814 -1.16327,-1.39619 -1.39599,-1.62891 -0.23271,-0.2327 -0.69786,-0.93076 -1.39599,-1.62891 -0.69815,-1.16356 -3.49007,-4.18919 -7.91163,-9.07617 -1.86171,-2.09442 -6.75002,-7.21437 -10.24072,-10.70508 -0.69814,-0.69813 -2.09425,-1.86132 -3.25781,-3.0249 -2.55985,-2.32713 -2.32608,-2.09424 -3.95508,-3.25781 -0.69814,-0.69813 -1.16474,-1.16455 -1.39746,-1.16455 -0.46543,-0.69814 -8.60919,-4.88584 -10.70361,-5.58399 -1.27993,-0.34906 -2.96748,-0.58175 -4.56738,-0.61083 z m -177.61524,7.06787 c -1.47264,0.0436 -3.69807,0.34988 -4.22168,0.52441 -0.23271,0.23272 -0.69766,0.46436 -1.16308,0.46436 -1.629,0 -6.74963,2.32774 -9.77491,4.18946 -0.93085,0.93084 -2.32675,1.86221 -3.0249,2.32763 -0.69814,0.46542 -1.62911,1.16328 -1.86182,1.39599 -0.23272,0.23271 -1.39571,1.1626 -2.79199,2.32618 -1.16357,0.93086 -2.56094,2.09511 -3.02637,2.56054 -7.21412,6.7487 -11.63468,11.17053 -14.42724,14.1958 -0.46544,0.69815 -2.09444,2.32736 -3.49073,3.72364 -1.16357,1.39628 -2.55948,3.02529 -3.0249,3.49072 -0.46543,0.46543 -0.93184,1.16329 -1.16455,1.396 -3.49071,3.49071 -13.49699,16.98742 -15.12598,20.01269 0,0.23272 -0.46602,0.69786 -0.69873,1.396 -0.46543,0.46542 -0.93017,1.16494 -0.93017,1.63037 -0.46542,0.46543 -3.49132,6.74825 -4.18946,8.14453 -0.69813,1.86171 -2.32656,6.04992 -2.79199,7.91162 -0.2327,0.93086 -0.69893,2.09532 -0.93164,2.79346 -0.23271,0.69813 -0.46435,2.09385 -0.46435,2.79199 -0.23271,0.69814 -0.46602,1.8624 -0.69873,2.56055 -1.16357,4.65427 -1.39667,17.685 -0.46583,26.29541 0.69815,7.21411 2.32834,12.80021 4.88819,16.75634 2.32714,3.95613 10.70481,12.33361 15.59179,15.35889 2.55986,1.629 4.188,2.79199 4.188,2.79199 0.23271,0 0.46581,2e-4 0.46581,0.23291 0.46543,0.46543 10.47256,5.35254 10.938,5.35254 0.23271,0 0.69745,0.23292 0.93017,0.23292 0.23271,0.23271 1.16407,0.69746 2.32764,0.93017 1.16356,0.23271 2.32637,0.69873 2.55907,0.69873 3.02529,0.93086 6.28381,1.86201 9.30909,2.09472 1.16357,0.23272 2.32636,0.46582 2.55908,0.46582 0,0 2.32813,0.23165 4.65528,0.46436 5.11969,0.23271 18.15157,0.001 20.71142,-0.46436 4.88698,-0.46542 5.58515,-0.69912 6.98144,-1.16455 1.629,-0.69813 3.49005,-1.62822 4.4209,-2.55908 1.62899,-1.39628 2.79278,-3.95675 3.72364,-7.68017 0.23272,-1.62899 0.69873,-9.30813 0.69873,-15.12598 0,-6.28326 0.93097,-16.98879 1.86181,-21.64307 0,-0.93085 0.23145,-2.09365 0.23145,-2.55908 0,-0.46541 0.23369,-1.86262 1.16455,-6.28418 0.46542,-2.32714 1.16261,-4.88693 2.32617,-8.61035 0.46543,-1.629 1.16348,-3.49063 1.62891,-5.11963 0.23271,-0.93085 0.69893,-2.09385 0.93164,-2.79199 0,-0.46543 0.23272,-1.16309 0,-1.16309 -0.23271,-0.46543 -8.84357,-0.46562 -10.93799,-0.23291 -0.69814,0.23272 -2.5588,0.46455 -3.95508,0.69727 -1.39627,0.23271 -3.02549,0.69893 -3.72363,0.93164 -0.46543,0.23271 -1.86241,0.46456 -2.56054,0.69727 -2.79257,0.69814 -10.93771,3.49112 -12.33399,3.95654 -0.23272,0.23272 -1.16368,0.46621 -1.86182,0.93163 -3.02528,0.93086 -10.70392,4.88643 -12.79834,6.28272 -1.629,0.93085 -1.86203,1.16319 -5.58545,3.02491 -2.55985,1.16357 -3.02608,1.39599 -4.42236,1.39599 -2.09442,0 -2.32617,-0.23283 -2.32617,-1.86181 0,-1.629 1.3964,-3.72336 5.35253,-8.61036 3.72342,-4.18884 4.65441,-5.58409 5.35254,-7.4458 0.46544,-1.39628 0.46544,-1.3961 0,-3.25781 -0.23271,-0.93085 -0.69892,-2.09511 -0.93163,-2.56055 -0.23273,-0.93084 -0.93057,-2.09444 -1.396,-3.49071 -1.62899,-3.49072 -1.16425,-5.11964 0.93017,-5.11964 0.93086,0 3.25861,0.46474 4.18946,0.93018 0.23272,0.23272 0.46601,0.23291 0.69873,0.23291 0.23271,0 0.69766,0.23311 1.16308,0.46582 3.95614,1.86171 7.44738,2.79199 9.30909,2.79199 0.69813,0 1.39599,-2.09396 1.39599,-4.6538 0,-2.32713 0.69786,-4.65441 1.396,-5.35254 1.16357,-0.93087 2.7925,10e-4 5.11963,3.02636 1.39629,1.62899 2.55919,2.5584 4.4209,3.48926 2.09442,0.93086 6.05061,2.0953 10.47216,2.79346 0.93085,0 2.79318,0.46581 4.18946,0.46581 3.02527,0.69814 13.03273,0.92979 16.52344,0.46436 4.18884,-0.23271 6.74825,-1.163 8.14452,-2.792 0.93087,-0.69813 0.93018,-0.93155 0.93018,-2.56054 0,-0.93086 -0.23164,-1.86054 -0.46435,-2.09326 0,0 -0.23291,-0.46601 -0.23291,-0.69873 0,-0.93085 -4.88714,-9.30853 -8.84327,-15.5918 -0.69814,-0.93086 -1.39599,-2.09492 -1.39599,-2.32763 -0.23272,-0.46544 -1.62901,-2.32728 -3.49072,-5.35254 -0.69814,-0.93086 -1.39746,-1.86054 -1.39746,-2.09327 -0.23273,-0.23271 -0.93077,-1.39697 -1.62891,-2.56054 -0.93085,-1.16356 -2.79171,-3.95539 -4.18799,-6.04981 -1.629,-2.32714 -3.0251,-4.18985 -3.25781,-4.65527 -0.23272,-0.23272 -0.46601,-0.69767 -0.69873,-1.16309 -0.23271,-0.23272 -0.69767,-0.93076 -1.16309,-1.6289 -0.46543,-0.46544 -1.39659,-1.86115 -2.09472,-2.79199 -0.69815,-1.16358 -1.6291,-2.32803 -1.86182,-2.79346 -0.46542,-0.23271 -1.39679,-1.62862 -2.32764,-3.0249 -0.93086,-1.16358 -1.86054,-2.56055 -2.09326,-2.56055 -0.23271,-0.23272 -0.93223,-1.16367 -1.63037,-1.86182 -3.02528,-4.18885 -6.51514,-7.446 -7.67871,-7.67871 -0.23272,-0.0582 -0.63998,-0.0731 -1.13086,-0.0586 z m 147.5083,7.01953 c -1.04085,-0.005 -2.24116,0.19544 -3.25928,0.48633 -0.69814,0.23271 -2.09405,0.69745 -3.0249,0.93017 -2.09442,0.46544 -5.35244,1.86241 -6.98144,2.56055 -0.46544,0.23271 -0.93037,0.23145 -1.16309,0.23145 -0.23271,0 -0.46602,0.23291 -0.69873,0.23291 0,0.23271 -0.46456,0.46582 -0.69727,0.46582 -0.46543,0 -1.39677,0.46474 -2.32764,0.93018 -0.69813,0.23271 -1.86221,0.69892 -2.32763,0.93163 -0.69814,0.46544 -1.86113,0.93058 -2.79199,1.396 -0.93085,0.46543 -2.55987,1.16347 -3.49073,1.62891 -0.93085,0.46542 -1.86202,0.69873 -2.09473,0.69873 -0.23271,0 -0.46581,0.2329 -0.46581,0.2329 -0.23272,0.23273 -0.46475,0.46437 -0.93018,0.46437 -0.46542,0.2327 -1.6295,0.4662 -2.32764,0.93163 -0.93086,0.23271 -1.86074,0.69727 -2.32617,0.69727 -0.69813,0.23271 -1.16417,0.4668 -4.18945,1.63037 -2.09442,0.69814 -4.18938,1.3957 -9.30908,2.79199 -2.55985,0.46542 -5.3511,0.93057 -8.8418,1.39599 -7.21412,0.93086 -18.15219,0.23281 -24.90088,-1.6289 -0.46543,-0.23271 -1.8624,-0.46601 -2.56054,-0.69873 -0.93086,-0.23271 -2.09366,-0.46455 -2.55908,-0.69727 -2.32715,-0.69813 -3.72354,-1.16349 -5.35254,-1.6289 -5.58513,-1.3963 -7.6797,-1.86221 -8.84327,-2.32764 -0.93085,-0.23272 -2.09455,-0.69804 -5.35254,-1.62891 -0.69814,0 -1.62931,-0.2329 -2.09473,-0.2329 -0.23271,0 -0.69745,-0.2331 -0.93017,-0.46583 -0.46542,0 -1.62969,-0.46435 -2.56054,-0.46435 -1.16358,-0.23271 -2.55968,-0.46601 -3.25782,-0.69873 -1.62899,-0.23271 -3.72276,-0.23271 -4.42089,0 -0.46544,0.23272 -0.69874,0.46621 -0.69874,0.93164 1e-5,0.69814 1.16407,3.25792 2.32764,5.11963 0.23271,0.46542 0.93076,1.62822 1.62891,2.55908 1.86171,3.25799 5.81729,9.07629 9.77344,14.42871 1.39627,1.86171 2.79365,3.72382 3.02636,3.95654 2.55985,3.72342 9.07462,11.63516 10.70362,13.26416 0.69813,0.69814 1.8622,1.39639 2.32763,1.86182 0.93085,0.46542 0.93067,0.46542 3.25781,0 1.39628,-0.23272 2.55947,-0.69893 3.02491,-0.93164 0.2327,0 0.69912,-0.23163 1.16455,-0.46436 1.86171,-0.46542 4.42112,-1.3961 8.14452,-3.25781 4.18886,-1.86171 3.95627,-1.86221 5.35254,-2.32763 7.91226,-2.32715 13.49731,-2.79248 20.71143,-1.62891 1.629,0.46543 2.09396,0.46515 4.65381,1.39599 5.1197,1.86171 10.24035,5.11926 13.26563,8.14454 2.09442,2.09442 2.32724,2.55986 1.86181,3.49072 -0.93085,1.16356 -3.49095,0.46599 -10.70508,-2.79199 -2.09442,-1.16357 -4.65459,-2.32784 -5.58545,-2.56055 -0.69814,-0.23271 -1.8624,-0.46455 -2.56054,-0.69726 -0.69814,-0.23271 -1.39619,-0.46583 -1.62891,-0.46583 -0.46542,0 -1.39551,-0.2329 -2.55908,-0.2329 -2.55985,-0.69815 -7.21466,-0.93126 -9.30908,-0.46583 -1.629,0.23273 -2.09366,0.23351 -2.55908,0.93164 -0.93087,0.93085 -0.69804,1.62853 1.86181,4.65382 3.95614,4.88698 9.07506,10.2396 21.6416,22.80614 8.6104,8.84313 10.9381,11.17061 12.79981,12.5669 2.55985,1.8617 3.25781,1.16374 3.25781,-3.25781 0,-1.629 0.23291,-3.72441 0.23291,-4.65528 0.69814,-4.18884 1.39639,-7.67862 1.86181,-9.30762 0.23271,-0.69813 0.46456,-1.62968 0.69727,-2.56054 1.16357,-4.18884 3.49132,-11.86748 4.18946,-12.79834 0,-0.23271 0.23291,-0.46601 0.23291,-0.69873 0,-0.23271 0.23163,-0.69786 0.46435,-1.396 0.23271,-0.46543 0.46582,-1.16328 0.46582,-1.39599 l 0.46582,-0.93165 c 0.23272,-0.46542 0.23291,-0.93037 0.23291,-1.16308 0,-0.23272 0.23291,-0.46601 0.23291,-0.69873 0.23271,0 0.46476,-0.93077 0.93018,-1.6289 0.23272,-0.93086 0.69873,-1.86202 0.69873,-2.09473 0.23271,-0.46543 0.46474,-1.1624 0.93018,-2.09326 0.46542,-1.39629 0.69804,-2.09484 1.6289,-3.95655 1.16356,-2.55984 1.62949,-3.95645 2.32764,-5.58545 0.46543,-0.93085 1.16329,-2.09385 1.396,-2.79199 0.23271,-0.46542 0.93056,-1.86261 1.39599,-2.79346 0.23271,-0.93086 0.69873,-1.86181 0.69873,-1.86181 0,0 0.46455,-0.93097 0.69726,-1.86182 0.46544,-0.93086 1.16456,-2.09366 1.16456,-2.55908 0.23271,-0.46543 0.69746,-1.3964 0.93017,-1.86182 0.93086,-2.32714 3.95674,-9.30821 4.18946,-10.00634 0.23271,-0.23271 0.46474,-1.39698 0.93017,-2.56056 0.93086,-2.79255 1.39706,-5.11934 0.93164,-6.51562 -0.23272,-0.69814 -0.69784,-0.93038 -1.396,-1.16309 -0.43633,-0.17453 -1.00439,-0.25068 -1.6289,-0.25341 z m -82.35205,61.63183 c -2.76348,0 -5.38155,0.17388 -6.77784,0.52295 -5.11969,1.39629 -7.44649,2.09465 -10.00634,3.72363 -0.23271,0.23271 -0.69893,0.46583 -0.93164,0.46583 -1.629,0.93085 -6.98135,6.0503 -8.61035,8.37744 -1.86171,3.02528 -1.86151,5.58536 0.23291,7.21435 0.46543,0.46543 1.39639,0.93038 1.86181,1.16309 1.16358,0.69814 5.12013,1.396 7.44727,1.396 2.32714,0 5.11859,0.23262 12.56543,1.6289 3.4907,0.69815 3.95667,0.69864 9.30908,2.32764 1.16357,0.23271 5.35313,1.6291 6.05127,1.86182 0.46543,0.23272 5.35157,1.86094 7.67871,2.55908 2.79256,0.69815 3.95606,1.16347 5.11963,1.62891 0.69814,0.23271 1.62911,0.2329 1.86182,0.2329 0.46543,0 1.16368,0.23312 1.86181,0.46583 0.69814,0.23272 2.32736,0.46581 3.72363,0.46581 3.49071,0 4.4217,-0.46612 5.35254,-2.56054 0.46543,-1.16357 0.46583,-1.62902 0.46583,-3.49072 -0.23271,-2.55985 -0.46661,-3.25745 -1.39747,-6.28272 -1.86171,-6.51599 -8.60951,-13.72999 -16.28906,-17.2207 -0.69814,-0.23271 -1.39619,-0.69873 -1.6289,-0.69873 -0.23272,-0.23271 -0.69914,-0.46582 -1.16456,-0.46582 -0.46543,-0.23272 -1.3951,-0.46475 -2.09326,-0.93018 -2.09442,-0.69814 -3.72345,-1.16368 -6.98145,-1.86182 -1.97805,-0.34907 -4.8874,-0.52295 -7.65087,-0.52295 z m -7.9834,64.95118 c -2.56121,-0.0932 -4.81672,0.3241 -6.70752,1.19677 -1.86171,0.69814 -3.25781,2.32716 -3.25781,3.49073 0,1.62898 -3.25696,7.21467 -7.4458,12.7998 -2.09444,2.79256 -3.95714,5.58429 -4.65527,7.67871 -0.46542,0.69815 -0.69747,1.39619 -0.93018,1.62891 0,0.23271 -0.23331,1.39698 -0.69873,2.56054 -0.23272,1.86171 -0.23272,2.32736 0,3.72364 0.46542,2.09443 1.86173,3.95567 3.49072,4.6538 2.32714,1.16358 3.0254,1.396 5.35254,1.396 1.86171,0 2.32676,-0.23183 3.0249,-0.69726 1.16357,-0.69814 1.62891,-2.32707 1.62891,-5.11963 0.23271,-1.16357 0.46602,-2.32803 0.69873,-2.79346 0.23271,-0.46542 0.46602,-1.16368 0.69873,-1.86181 1.16357,-2.09443 4.18829,-6.28302 6.28271,-8.37745 3.49071,-3.72342 6.51594,-5.81689 8.61036,-5.81689 1.86171,0 3.95654,2.32648 3.95654,4.4209 0,1.629 -0.93146,2.55967 -4.18946,3.25781 -3.02527,0.93086 -5.81798,4.18851 -8.84325,10.00635 -0.93086,2.09442 -2.32696,4.65478 -3.25782,5.81836 -4.65427,7.21412 -10.70405,8.60975 -18.15088,4.42089 -1.629,-1.16356 -5.35352,-3.72314 -6.51709,-4.88671 -0.23271,-0.23271 -1.1622,-0.69786 -1.86035,-1.396 -0.93085,-0.46542 -1.86202,-0.93037 -2.09473,-1.16308 -1.39627,-0.93086 -3.72355,-2.09512 -5.35253,-2.56056 -0.93086,-0.2327 -1.86201,-0.69725 -2.09473,-0.69725 -0.46542,-0.23272 -1.86154,-0.46602 -3.25781,-0.69874 -2.55986,-0.69814 -3.723,-0.69872 -11.63526,-0.69872 -7.91226,0 -9.30919,3.8e-4 -11.1709,0.46581 -2.32713,0.46543 -5.11983,1.39639 -5.35254,1.86182 -0.23271,0 -0.46455,0.23291 -0.69726,0.23291 -0.69814,0 -4.8877,2.32696 -6.05127,3.25781 -2.32713,2.32714 -2.32713,5.35226 0,6.74854 0.93086,0.46543 3.49064,1.39638 5.11963,1.86182 0.69815,0 1.62969,0.466 2.56054,0.69873 3.72342,0.93084 7.91193,2.09345 10.00635,2.32617 0.69814,0 1.86094,0.2331 2.55909,0.46581 1.629,0.23273 3.95675,0.93078 7.68017,1.62891 0.93086,0.23271 2.55947,0.46602 3.02491,0.69873 1.39627,0.23271 3.72405,0.46535 11.17089,1.6289 1.16356,0.23273 2.79279,0.46455 3.72363,0.69727 0.93087,0.23271 2.09346,0.46583 2.32617,0.46583 0.46544,0 1.86154,0.2329 3.25782,0.2329 1.16357,0.23271 3.72335,0.69747 5.11962,0.93018 1.629,0.23271 3.95607,0.46602 5.11964,0.69873 0.93085,0 3.95704,0.23311 6.28417,0.46582 2.32715,0.23271 5.35207,0.2331 6.51563,0.46582 2.32714,0 3.25832,-0.23409 5.58545,-1.63037 2.09443,-1.39628 5.35246,-4.88595 6.98144,-7.4458 0.69815,-0.93085 3.25812,-6.05022 5.35254,-10.00634 0.46542,-1.16358 0.46455,-1.16417 0.69727,-0.69874 0.46542,0.46542 0.46542,13.96233 0,16.75488 0,1.39629 -0.23164,3.49043 -0.46435,4.88672 0,1.39628 -0.2331,3.25841 -0.46583,3.95655 -0.23271,0.93085 -0.46582,2.56006 -0.46582,3.72363 -1.16357,7.67955 -2.56025,16.05765 -3.95654,23.03906 -0.23271,1.16357 -0.46454,3.02443 -0.69727,4.18799 -0.46542,2.55985 -0.93076,5.81905 -1.6289,8.37891 -0.93086,4.65426 -2.09532,11.86789 -2.79346,16.75488 -0.23271,1.16357 -0.46455,2.79259 -0.69726,3.49072 0,0.93086 -0.2331,2.56007 -0.46582,3.72363 -0.23271,2.09444 -0.46475,5.35257 -0.93018,8.84327 -1.16357,9.77398 -1.16357,30.71712 0,38.62939 0.93085,6.74869 1.39531,8.37804 2.32617,12.5669 0.46542,2.32713 2.56095,8.84385 3.02637,9.54198 0.23272,0.23271 0.23164,0.69767 0.46435,1.16309 0,0.46543 0.2331,0.93018 0.46583,0.93018 0,0.23271 0.2329,0.46602 0.2329,0.69873 0,0.23271 0.23312,0.93056 0.46583,1.396 0.23271,0.69813 0.46435,1.16328 0.46435,1.39599 0,0.23272 1.16467,2.56096 3.02637,6.51709 2.55985,5.35241 5.35138,8.84239 7.4458,9.54053 1.39628,0.46542 1.39697,0.46542 2.56055,0 2.55984,-0.93086 3.49005,-3.02502 4.42089,-8.37744 0.46543,-3.72342 0.46543,-12.56673 0,-19.31544 -0.93084,-16.75537 -1.16308,-19.54774 -1.16308,-37.93212 0,-19.31523 0.23243,-23.27133 1.396,-31.18359 0,-1.39628 0.23291,-3.0253 0.23291,-3.49073 -1e-5,-0.46543 0.2331,-1.86133 0.46582,-3.0249 0.23271,-1.16357 0.46454,-3.25899 0.69726,-4.65527 1.39628,-7.21412 3.25832,-15.82474 5.58545,-22.80616 0,-0.46542 0.46601,-1.62822 0.69873,-2.55908 0.23271,-0.93085 0.69727,-2.09512 0.69727,-2.56054 0.23271,-0.69814 0.69893,-1.86115 0.93164,-2.792 0.23271,-0.69814 0.69766,-2.56006 1.16308,-3.72363 0.46543,-1.16357 0.69873,-2.32637 0.69873,-2.55908 0,-0.23272 0.23164,-0.69912 0.46436,-1.16455 0.23271,-0.46543 1.16388,-3.25744 2.09473,-6.28272 0.93086,-3.02528 1.86181,-5.58544 1.86181,-5.58544 0.23271,-0.23271 0.23291,-0.46456 0.23291,-0.69727 0,-0.23271 0.23311,-0.69912 0.46582,-1.16455 0.23271,-0.23271 0.46475,-1.39532 0.93018,-2.32618 0.93085,-2.32713 2.79258,-5.81913 3.49072,-6.75 1.16357,-1.16356 2.09404,-1.3956 3.02491,-0.93017 0.69813,0.23271 3.25839,2.79317 3.95654,4.18945 0.46543,0.69814 2.32716,2.09385 3.49072,2.79199 0.46543,0.23271 1.62989,0.46601 2.79345,0.69873 1.86171,0.46542 3.25698,0.46436 10.93653,0.46436 4.88699,0 10.00753,-2e-4 11.40381,-0.23291 1.39628,0 4.1879,-0.23163 5.81689,-0.46435 1.86171,0 4.42188,-0.23312 5.58545,-0.46583 1.16357,-0.23272 3.25753,-0.46582 4.65381,-0.46582 1.39628,-0.23271 3.49191,-0.46455 4.88818,-0.69726 2.55986,-0.23272 5.11866,-0.46621 7.44581,-0.93164 0.69813,-0.23271 2.32715,-0.46455 3.49071,-0.69727 0.93087,-0.23271 2.79298,-0.46601 3.95655,-0.69872 0.93086,-0.23271 2.79279,-0.46603 3.72363,-0.69874 0.93087,-0.23271 2.09365,-0.46435 2.55909,-0.46435 0.46542,-0.23271 2.56085,-0.69913 4.65527,-1.16455 3.95614,-0.93085 4.42178,-1.16368 7.21435,-1.86182 3.72342,-0.93086 8.84172,-2.55966 10.47071,-3.25781 0.46543,0 1.39657,-0.46455 2.09473,-0.69727 4.18884,-1.62899 8.1459,-3.95646 9.7749,-5.58545 0.93084,-0.93086 1.16269,-2.32676 0.69726,-3.0249 -0.46543,-0.69814 -3.02521,-1.62931 -5.11963,-2.09473 -0.69814,0 -1.62803,-0.23311 -2.32617,-0.46582 -0.69814,-0.23272 -1.62929,-0.46581 -2.09473,-0.46581 -0.46543,0 -1.6297,10e-4 -2.56054,-0.23146 -1.629,-0.46542 -5.8176,-0.93183 -11.86817,-1.16454 -2.32713,-0.23271 -5.35205,-0.46456 -6.51562,-0.69727 -1.16357,0 -6.51575,-0.23291 -11.86817,-0.23291 -5.58511,0 -10.70585,-2e-4 -11.63671,-0.23291 -1.16358,0 -2.79151,-0.23291 -3.95508,-0.23291 -5.81784,-0.46543 -14.19592,-2.09483 -19.54834,-3.95654 -4.18884,-1.62899 -7.6798,-2.32656 -10.70508,-2.792 -5.1197,-0.46542 -6.28301,-0.46563 -8.37744,-0.2329 -4.42156,0.93085 -9.54173,0.46551 -14.42871,-1.62891 -0.23273,0 -1.16387,-0.46602 -2.09473,-0.69873 -0.69814,-0.23271 -1.62763,-0.69727 -1.86035,-0.69727 -0.23271,-0.23271 -1.16367,-0.69892 -1.86182,-0.93164 -2.79256,-1.16356 -4.88742,-2.32735 -7.44726,-3.72363 -4.42156,-2.32714 -10.70529,-5.35099 -14.42871,-6.97998 -0.46543,-0.23272 -1.39639,-0.69892 -1.86182,-0.93165 -0.69814,-0.23271 -1.3962,-0.46581 -1.62891,-0.46581 -0.23272,0 -0.46454,-0.23292 -0.69727,-0.23292 -0.2327,-0.46542 -6.98134,-2.55947 -8.61034,-3.0249 -0.46544,0 -1.39659,-0.2331 -2.09473,-0.46581 -1.74535,-0.43635 -3.39247,-0.67505 -4.9292,-0.73096 z M 413.62207,578.792 c -6.72489,-10e-6 -13.40154,1.22897 -21.15381,3.687 -1.39628,0.23271 -3.02529,0.93018 -3.49072,0.93018 -0.46543,0.23271 -1.39659,0.69893 -2.09473,0.93164 -0.93086,0.46543 -1.86201,0.69747 -2.09473,0.93018 -0.23271,0 -1.16367,0.46601 -1.86181,0.69873 -3.95613,1.8617 -10.47248,5.35225 -12.5669,6.74853 -2.79257,2.09442 -5.11876,1.86238 -9.30762,-0.93017 -2.55984,-1.62901 -4.88722,-2.56114 -7.21435,-3.25928 -8.14498,-2.55986 -17.91917,-2.32655 -26.29688,0.69873 -4.65426,1.62899 -8.60977,5.11976 -11.40234,10.47217 -0.23271,0.46542 -0.69893,1.16328 -0.93164,1.396 0,0.46542 -0.46582,0.93057 -0.46582,1.39599 -0.23271,0.69815 -0.69726,1.3964 -0.69726,1.86182 -0.93085,1.86171 -2.09492,4.8879 -2.32764,6.28417 -0.23271,0.69815 -0.46455,1.86113 -0.69726,2.792 -1.16357,4.18884 -2.32824,9.54192 -3.02637,14.66162 -0.23272,1.16356 -0.46436,2.55987 -0.46436,3.49073 -0.46543,2.32713 -1.16494,9.07503 -1.63037,18.15087 -0.46542,8.14498 5.9e-4,35.37212 0.69873,44.68067 0.23272,1.629 0.46601,4.42228 0.69873,6.05126 0.69814,9.54126 2.09425,16.98869 3.25781,19.78125 1.86171,4.42155 2.7921,5.81701 4.65381,7.67872 0.93085,0.93085 1.86182,1.6289 1.86182,1.6289 0.23271,0 0.69765,0.23311 1.16308,0.46583 1.39628,0.46542 3.95724,1.16308 6.5171,1.16308 1.39627,0.23271 3.02402,0.23311 3.72216,0.46582 1.62899,0.23272 10.47277,-4e-4 14.66163,-0.46582 7.67955,-0.69815 11.17032,-1.86212 13.96288,-3.95654 2.55986,-2.09444 3.02531,-3.95582 3.49073,-13.49708 0,-6.05055 0.23331,-6.98097 0.69873,-8.14453 l 0.46435,-1.16308 0.69873,0.93017 c 0.46544,0.46543 1.39639,1.6297 1.86182,2.56055 2.55985,4.42156 4.65343,6.51533 7.67871,7.91162 1.39628,0.69814 5.58635,0.69814 8.37891,0 3.72342,-0.93086 4.1884,-1.16319 8.14452,-3.0249 1.39629,-0.69815 2.55909,-1.16456 2.55909,-1.16456 0.69814,0 17.68647,-8.60988 26.29687,-13.26415 0.93086,-0.46544 2.09532,-1.16329 2.79346,-1.396 0.69814,-0.46543 2.09404,-1.16347 3.02491,-1.62891 0.93084,-0.46542 2.56005,-1.39658 3.72363,-2.09472 0.93084,-0.46543 2.09472,-1.16309 2.09472,-1.16309 0.23271,0 1.16241,-0.69912 2.09327,-1.16455 1.16356,-0.46542 2.32783,-1.16328 2.56054,-1.39599 0.46543,-0.23272 1.16309,-0.69727 1.16309,-0.69727 0.23271,-0.23271 0.93076,-0.46622 1.6289,-0.93164 0.46542,-0.23272 1.16328,-0.69746 1.396,-0.93018 2.55985,-1.39628 5.81808,-3.4915 7.21435,-4.42236 2.55986,-1.62899 2.56007,-1.62822 3.72364,-2.55908 0.69814,-0.46542 2.09404,-1.39659 3.0249,-2.09473 1.16356,-0.69813 2.56095,-1.62931 3.02637,-2.09473 1.39629,-1.16357 1.39609,-0.93039 -0.23291,-4.65381 0,-0.23271 -0.46602,-1.16366 -0.69873,-1.86181 -0.23271,-0.93085 -0.69727,-1.6293 -0.69727,-2.09473 -0.23272,-0.23271 -0.46621,-1.16368 -0.93164,-1.86181 -0.23271,-0.69814 -0.69726,-1.6291 -0.69726,-1.86182 -0.23271,-0.46542 -0.69932,-1.86154 -1.39747,-3.25781 -0.46543,-1.39628 -1.39619,-3.2584 -1.6289,-3.95654 -0.46543,-0.93086 -0.93018,-1.86075 -0.93018,-2.32618 -0.2327,-0.46542 -0.69912,-1.39697 -1.16455,-2.56055 -0.46542,-0.93084 -0.93017,-1.62909 -0.93017,-1.86181 0,0 -0.23331,-0.93096 -0.69873,-1.86181 -1.86171,-4.18885 -2.32589,-4.88674 -3.72218,-8.37744 -0.23271,-0.69815 -0.46602,-1.6291 -0.69873,-1.86183 -0.69813,-1.62898 -2.32656,-5.817 -2.79198,-7.67871 -1.39629,-3.95613 -2.79366,-8.14532 -3.02637,-9.07617 -0.23272,-0.69813 -0.46455,-1.8624 -0.69727,-2.56054 -1.62899,-4.887 -2.09424,-6.98099 -3.25781,-11.63525 -0.46542,-2.55986 -1.16406,-5.35298 -2.32764,-12.79981 -0.23271,-1.16357 -0.69873,-3.25753 -0.69873,-4.65381 -0.23272,-1.16357 -0.69745,-3.25733 -0.93018,-4.4209 -0.23271,-1.39628 -0.46581,-2.56095 -0.46581,-3.02637 0,-0.23272 -0.23292,-0.93056 -0.23292,-1.39599 l -0.2329,-0.93018 h -1.396 c -0.93085,0 -3.48995,-0.2329 -6.04981,-0.2329 -1.57081,-0.13091 -3.12534,-0.19629 -4.67724,-0.19629 z m -216.86719,2.0581 -0.69726,1.6289 c -1.16357,2.32715 -2.09444,4.88646 -3.49073,9.77344 -0.46542,0.93086 -0.69893,2.09513 -0.93164,2.56055 0,0.23272 -0.46456,1.62862 -0.69727,3.0249 -0.46542,1.16357 -0.69891,2.79258 -0.93163,3.49072 -0.23271,0.69815 -0.46456,1.86115 -0.69727,2.792 -0.69814,1.8617 -1.16349,3.95625 -1.62891,5.35253 -0.23272,0.69816 -0.69913,2.32736 -1.16455,3.72363 -0.46542,1.62901 -1.16347,3.72336 -1.62891,5.11964 -0.46542,1.16356 -1.16348,3.25771 -1.6289,4.88671 -0.46543,1.39629 -0.93037,3.0253 -1.16308,3.49073 -0.69814,2.09442 -0.93038,2.79278 -1.16309,3.72363 0,0.23272 -0.46641,1.86173 -1.16455,3.49073 -0.46543,1.39627 -0.93036,3.02529 -1.16309,3.49071 0,0.46544 -0.69766,1.86173 -1.16308,3.49073 -0.46542,1.39628 -0.93184,3.0253 -1.16455,3.49072 0,0.69814 -0.69766,2.09465 -1.16309,3.72363 -0.46543,1.39628 -1.16309,3.0253 -1.16309,3.49073 -0.93085,2.32713 -1.86202,5.12002 -2.09473,5.58544 0,0.23273 -0.69912,1.62881 -1.16454,3.25782 -0.46543,1.62899 -0.93038,3.02509 -1.16309,3.25781 0,0.23271 -1.163,3.95569 -2.79199,8.14453 -1.39629,4.42156 -2.56055,8.14619 -2.56055,8.37891 -0.23272,0.23271 -0.46456,0.93077 -0.69727,1.6289 0,0.46543 -0.2331,1.62824 -0.46581,2.55909 -0.23272,0.93086 -0.46582,1.86181 -0.46582,1.86181 0,0.69814 1.62942,1.62854 7.44726,4.65381 6.74869,3.49071 6.51514,3.49131 7.67871,4.18946 0.69814,0.69813 0.93164,1.16328 0.93164,1.39599 0,0.69814 -1.39591,2.09405 -3.0249,3.02491 -3.258,1.62899 -5.81915,4.18888 -6.75,6.98144 -0.93086,1.86171 -0.69794,4.88771 0.23291,6.05127 0.93086,1.39629 1.86192,1.86201 3.72363,2.09472 2.79258,0.23272 5.35236,1.62853 8.61036,4.65382 1.16356,1.39627 2.79258,3.02588 3.49071,4.18945 1.39629,2.09441 3.49044,3.95566 4.88673,4.6538 0.46542,0.23271 1.86261,0.46602 2.79345,0.69873 2.09443,0.46544 5.11936,0.46544 10.00635,0 7.67955,-0.69813 14.19573,-1.86212 19.31543,-3.95654 0.69814,-0.23272 1.6293,-0.69873 2.09473,-0.69873 0.93084,-0.46543 3.02432,-1.62901 5.81689,-3.49072 3.4907,-2.32713 5.35265,-3.49004 7.21436,-4.4209 1.39628,-0.93085 1.86212,-0.93164 3.95654,-0.93164 2.09443,0 2.56025,0.2335 3.95654,0.93164 1.62899,0.69814 3.48957,1.86192 5.58398,3.72364 0.93087,0.69813 2.32716,1.86093 3.49073,2.55908 1.16357,0.93085 2.56093,2.09511 3.02637,2.56054 1.39627,1.16357 5.11915,2.792 6.28271,2.792 0.69815,0 0.93057,6.8e-4 1.396,-0.93018 0.23271,-1.16357 0.46641,-3.25785 1.16455,-10.23926 0.23272,-2.32714 0.23145,-11.40388 0.23145,-25.3667 0,-30.25277 0.46632,-38.63082 2.79345,-50.73193 0.69814,-3.25799 1.39531,-6.51545 2.32617,-9.77344 0,-0.46543 0.46602,-1.86114 0.69873,-2.79199 0.23271,-0.93086 0.69873,-2.09532 0.69873,-2.79346 0.23271,-0.69813 0.69746,-2.09405 0.93018,-3.0249 0.23271,-0.93086 0.46601,-2.09386 0.69873,-2.79199 1.16356,-4.42156 1.62909,-6.05098 1.86182,-7.44727 0.23271,-0.46542 0.46435,-1.39658 0.46435,-2.09473 1.86171,-6.74869 2.56104,-13.26418 1.39746,-16.75488 -0.93084,-3.25799 -3.25822,-4.88711 -7.21435,-5.35254 -0.69814,0 -2.56027,-0.23311 -3.95654,-0.46582 -1.39629,-0.23272 -4.1883,-0.46455 -6.28272,-0.69726 -1.86171,-0.23272 -4.65479,-0.69873 -5.81836,-0.69873 -1.39628,-0.23272 -3.49044,-0.46582 -4.88672,-0.46582 -4.65427,-0.46544 -10.70499,-1.16329 -12.33399,-1.396 -0.93085,0 -2.55986,-0.23291 -3.49071,-0.23291 -0.93086,0 -2.32677,-2e-4 -3.02491,-0.23291 -0.69815,-0.23271 -2.79356,-0.46436 -4.65527,-0.46436 -1.86171,-0.23271 -5.11847,-0.46602 -7.21289,-0.69873 -2.32714,-0.23271 -5.81847,-0.46602 -7.68018,-0.69873 -2.09442,-0.23271 -4.88663,-0.46435 -6.51562,-0.46435 -1.39629,-0.23271 -3.95626,-0.2331 -5.35254,-0.46582 z m 11.25879,102.24902 c 0.14545,-0.0291 0.26158,0.0287 0.37793,0.14502 0.46543,0.23272 0.46563,0.69737 0.23291,2.55908 0,1.16357 -0.23311,3.0255 -0.46582,3.72364 -0.93086,4.18884 -1.16396,7.913 -0.46582,9.54199 0.46543,1.629 0.93146,1.86153 4.18946,3.25781 0.23271,0 2.09463,0.69765 3.72363,1.16309 3.72342,1.16356 6.28184,2.55966 6.97998,3.25781 0.46542,0.46543 0.23359,1.16327 -0.69727,1.396 -0.69814,0.23271 -7.67969,0.2329 -8.84326,0.2329 -0.46542,0 -1.62842,-0.23163 -2.79199,-0.46435 -6.28327,-0.69814 -11.63624,-1.6295 -12.79981,-2.32764 -2.09442,-0.93086 -3.2584,-1.62969 -3.95654,-2.56055 -1.39628,-2.09442 -0.93075,-4.1884 1.86182,-8.14453 1.86171,-2.09442 10.23936,-10.23877 12.10107,-11.40234 0.23271,-0.23271 0.40826,-0.34884 0.55371,-0.37793 z m 237.27979,11.31446 c -1.629,0 -8.14493,1.39638 -8.61036,1.86181 -0.23271,0.23271 -0.46602,0.23291 -0.69873,0.23291 -0.93086,0 -8.37725,3.72413 -11.63525,6.05127 -0.23271,0 -0.69747,0.23164 -0.93018,0.46435 -0.23271,0 -0.46602,0.23292 -0.69873,0.23292 0,0.2327 -1.3961,1.16406 -3.25781,2.32763 -1.629,1.16356 -3.0249,2.32764 -3.0249,2.32764 0,0 -0.69912,0.46474 -1.16455,0.93018 -0.69814,0.46542 -1.3962,0.93037 -1.62891,1.16308 -0.23272,0.23272 -0.93097,0.93203 -1.86181,1.39746 -2.32714,1.86171 -5.35167,5.35226 -6.04981,6.74854 -0.93085,1.629 -0.93105,2.56006 -0.23291,3.72363 0.93085,1.16357 3.72306,2.55947 6.51563,3.0249 0.46543,0 1.39658,0.2331 2.09472,0.46582 2.09443,0.46542 6.28282,1.16309 8.14453,1.16309 3.49071,0 8.84337,-0.46495 10.70508,-1.16309 0.23271,-0.23272 0.93057,-0.46582 1.39599,-0.46582 1.39629,-0.46543 2.56007,-0.93076 3.72364,-1.6289 0.46543,-0.46542 1.16455,-0.69873 1.16455,-0.69873 0.23271,0 2.32629,-1.86174 4.18799,-3.49073 3.72342,-3.72342 9.0756,-7.44698 11.86817,-8.84325 1.86171,-0.69815 2.32695,-0.93058 3.25781,-1.396 3.02527,-1.39629 2.79363,-3.02444 -0.46436,-7.67871 -1.86171,-2.32715 -3.49063,-4.19005 -5.11963,-4.88819 -0.69814,-0.23271 -1.39619,-0.69745 -1.6289,-0.93018 -0.93087,-0.23271 -4.65498,-0.93163 -6.05127,-0.93163 z"
     id="Path0"
     inkscape:connector-curvature="0"
     inkscape:export-filename="23.png"
     inkscape:export-xdpi="96"
     inkscape:export-ydpi="96" />
</svg>
