<?xml version="1.0" encoding="UTF-8" standalone="no"?>
<!-- Created with Inkscape (http://www.inkscape.org/) -->

<svg
   xmlns:dc="http://purl.org/dc/elements/1.1/"
   xmlns:cc="http://creativecommons.org/ns#"
   xmlns:rdf="http://www.w3.org/1999/02/22-rdf-syntax-ns#"
   xmlns:svg="http://www.w3.org/2000/svg"
   xmlns="http://www.w3.org/2000/svg"
   xmlns:sodipodi="http://sodipodi.sourceforge.net/DTD/sodipodi-0.dtd"
   xmlns:inkscape="http://www.inkscape.org/namespaces/inkscape"
   width="210mm"
   height="297mm"
   viewBox="0 0 210 297"
   version="1.1"
   id="svg1982"
   inkscape:version="0.92.2 (5c3e80d, 2017-08-06)"
   sodipodi:docname="22.svg">
  <defs
     id="defs1976" />
  <sodipodi:namedview
     id="base"
     pagecolor="#ffffff"
     bordercolor="#666666"
     borderopacity="1.0"
     inkscape:pageopacity="0.0"
     inkscape:pageshadow="2"
     inkscape:zoom="0.35"
     inkscape:cx="-121.42857"
     inkscape:cy="560"
     inkscape:document-units="mm"
     inkscape:current-layer="layer1"
     showgrid="false"
     inkscape:window-width="1680"
     inkscape:window-height="997"
     inkscape:window-x="-8"
     inkscape:window-y="-8"
     inkscape:window-maximized="1" />
  <metadata
     id="metadata1979">
    <rdf:RDF>
      <cc:Work
         rdf:about="">
        <dc:format>image/svg+xml</dc:format>
        <dc:type
           rdf:resource="http://purl.org/dc/dcmitype/StillImage" />
        <dc:title></dc:title>
      </cc:Work>
    </rdf:RDF>
  </metadata>
  <g
     inkscape:label="Calque 1"
     inkscape:groupmode="layer"
     id="layer1">
    <path
       inkscape:connector-curvature="0"
       style="fill:#ff0000;fill-opacity:1;fill-rule:evenodd;stroke:#ff0000;stroke-width:0.54373425;stroke-linecap:round;stroke-linejoin:round;stroke-opacity:1"
       id="Path1"
       d="m 95.490093,244.03549 c -1.3205,-0.0777 -2.71867,-0.23304 -3.10705,-0.3107 -0.31071,-0.0777 -1.39818,-0.15545 -2.33029,-0.15545 -1.00979,0 -2.09726,-0.0777 -2.56332,-0.23304 -0.46607,-0.15545 -1.55352,-0.31071 -2.48565,-0.31071 -1.00979,-0.0777 -2.09726,-0.23302 -2.48564,-0.38838 -0.38839,-0.0777 -1.08747,-0.23302 -1.6312,-0.23302 -0.54372,0 -1.32049,-0.0777 -1.70887,-0.23302 -0.31071,-0.0777 -1.24284,-0.23305 -1.94192,-0.31071 -0.77675,-0.0777 -1.39818,-0.15545 -1.6312,-0.31072 -0.15545,-0.15545 -0.69909,-0.3107 -1.16515,-0.3107 -0.38836,0 -1.00979,-0.0777 -1.32049,-0.23302 -0.31071,-0.0777 -1.00979,-0.23303 -1.55352,-0.31071 -0.62143,-0.0777 -1.16515,-0.23302 -1.39817,-0.38838 -0.15545,-0.0777 -0.62143,-0.15545 -1.00979,-0.15545 -0.38839,0 -0.93213,-0.15545 -1.16515,-0.23302 -0.23303,-0.15523 -0.77677,-0.31071 -1.3205,-0.31071 -0.46606,-0.0777 -1.00979,-0.23304 -1.16515,-0.38838 -0.23302,-0.15523 -0.6214,-0.23304 -0.93211,-0.23304 -0.3107,0 -0.77677,-0.15523 -1.08747,-0.23303 -0.23304,-0.15545 -0.77677,-0.3107 -1.16515,-0.38838 -0.3107,-0.0777 -0.77677,-0.15545 -0.93211,-0.3107 -0.23304,-0.15545 -0.54375,-0.23302 -0.85445,-0.23302 -0.23302,0 -0.69909,-0.0777 -0.93211,-0.23305 -0.3107,-0.15523 -0.85445,-0.3107 -1.24283,-0.38836 -0.38836,0 -0.77675,-0.15545 -0.85443,-0.31073 -0.0777,-0.0777 -0.38838,-0.23302 -0.54374,-0.23302 -0.23303,0 -0.69909,-0.0777 -1.00979,-0.3107 -0.38839,-0.15545 -0.85443,-0.3107 -1.08748,-0.3107 -0.23302,0 -0.46604,-0.0777 -0.6214,-0.23302 -0.0777,-0.15545 -0.38839,-0.23305 -0.62141,-0.23305 -0.15545,0 -0.6214,-0.15545 -0.93211,-0.3107 -0.38838,-0.23302 -0.77676,-0.38838 -0.93213,-0.38838 -0.23302,0 -0.54372,-0.0777 -0.69908,-0.23303 -0.15523,-0.15545 -0.38839,-0.23302 -0.54373,-0.23302 -0.15545,0 -0.54374,-0.15545 -0.85445,-0.31072 -0.38838,-0.23302 -0.77674,-0.31071 -0.93211,-0.31071 -0.15545,0 -0.38838,-0.15545 -0.46606,-0.23302 -0.15523,-0.15545 -0.54373,-0.3107 -0.85443,-0.3107 -0.3107,-0.0777 -0.69908,-0.23302 -0.85445,-0.38838 -0.0777,-0.15545 -0.38838,-0.23303 -0.6214,-0.23303 -0.23302,0 -0.54373,-0.0777 -0.62141,-0.23304 -0.15545,-0.15545 -0.46606,-0.3107 -0.77677,-0.3107 -0.3107,-0.0777 -0.6214,-0.23302 -0.77676,-0.38839 -0.0777,-0.0777 -0.31071,-0.23302 -0.46605,-0.23302 -0.0777,0 -0.46606,-0.15545 -0.69909,-0.3107 -0.31072,-0.15545 -0.62142,-0.3107 -0.77676,-0.3107 -0.15545,0 -0.38839,-0.15523 -0.46607,-0.23305 -0.0777,-0.15523 -0.38838,-0.3107 -0.6214,-0.3107 -0.23303,0 -0.38839,-0.0777 -0.46607,-0.23302 -0.0777,-0.0777 -0.3107,-0.23302 -0.54372,-0.3107 -0.23305,-0.0777 -0.54375,-0.23303 -0.69909,-0.31071 -0.0777,-0.15523 -0.3107,-0.23304 -0.46607,-0.23304 -0.23302,0 -0.54372,-0.15523 -0.77676,-0.38836 -0.23303,-0.15545 -0.46605,-0.31073 -0.62141,-0.31073 -0.0777,0 -0.23302,-0.0777 -0.38838,-0.23302 -0.0777,-0.15523 -0.31071,-0.23302 -0.46605,-0.23302 -0.15545,0 -0.46606,-0.15545 -0.69908,-0.3107 -0.23305,-0.23305 -0.54375,-0.31071 -0.62143,-0.31071 -0.0777,0 -0.46605,-0.23304 -0.85443,-0.54374 -0.38838,-0.23303 -0.93213,-0.54373 -1.16515,-0.62139 -0.54373,-0.23304 -1.86424,-1.00981 -2.87403,-1.7089 -0.46604,-0.3107 -1.00979,-0.6214 -1.08747,-0.6214 -0.0777,0 -0.23302,-0.15545 -0.38836,-0.3107 -0.0777,-0.15545 -0.31073,-0.31071 -0.46607,-0.31071 -0.15545,0 -0.54375,-0.23302 -0.93211,-0.54372 -0.38838,-0.31073 -0.93213,-0.69909 -1.24283,-0.85445 -0.3107,-0.15545 -0.69909,-0.46607 -0.93211,-0.69909 -0.23304,-0.23302 -0.77677,-0.6214 -1.24283,-0.93211 -0.46605,-0.3107 -1.00979,-0.69908 -1.24281,-0.93213 -0.23303,-0.23302 -0.93211,-0.85442 -1.6312,-1.39817 -2.56333,-2.01958 -6.13644,-5.9034 -7.06855,-7.68996 -0.15545,-0.38836 -0.38838,-0.69908 -0.46607,-0.77674 -0.0777,0 -0.15545,-0.31071 -0.23302,-0.54375 -0.0777,-0.23302 -0.15545,-0.54372 -0.3107,-0.54372 -0.0777,-0.0777 -0.23304,-0.31071 -0.3107,-0.54375 -0.0777,-0.23302 -0.15545,-0.85443 -0.31073,-1.24281 -0.15545,-0.62141 -0.15545,-1.00979 0.0777,-2.01958 0.15545,-0.69909 0.38838,-1.47586 0.54374,-1.63122 0.15523,-0.23302 0.23303,-0.54372 0.23303,-0.77675 0,-0.23304 0.15545,-0.62142 0.3107,-1.00981 0.23302,-0.3107 0.38838,-0.69908 0.38838,-0.85442 0,-0.15545 0.0777,-0.46607 0.15545,-0.62141 0.15545,-0.15545 0.31071,-0.62143 0.38837,-0.93213 0.0777,-0.3107 0.23304,-0.69909 0.31072,-0.85443 0.15545,-0.15545 0.23302,-0.46606 0.23302,-0.69909 0,-0.15545 0.15545,-0.46606 0.23302,-0.6214 0.15545,-0.15545 0.23305,-0.46607 0.23305,-0.54375 0.0777,-0.15523 0.15545,-0.54372 0.38836,-0.85442 0.15545,-0.38839 0.31072,-0.77677 0.31072,-0.85445 0,-0.15545 0.23303,-0.85445 0.54373,-1.55354 0.3107,-0.77675 0.6214,-1.47583 0.6214,-1.55351 0,-0.0777 0.0777,-0.38839 0.23305,-0.69909 0.6214,-1.39818 0.85443,-2.09726 0.85443,-2.33028 0,-0.15545 0.15545,-0.46607 0.23302,-0.62143 0.31072,-0.3107 0.62142,-1.32049 0.93213,-2.33028 0.15523,-0.31071 0.3107,-0.69909 0.46604,-0.93211 0.0777,-0.15545 0.23304,-0.46607 0.23304,-0.62143 0,-0.15523 0.0777,-0.46604 0.15523,-0.62141 0.15546,-0.23302 0.31073,-0.6214 0.38839,-1.00979 0,-0.3107 0.15545,-0.6214 0.3107,-0.6214 0.15545,-0.0777 0.23305,-0.3107 0.23305,-0.54375 0,-0.3107 0.15523,-0.6214 0.23302,-0.77674 0.15545,-0.23305 0.3107,-0.46607 0.3107,-0.62143 0,-0.15545 0.0777,-0.54373 0.3107,-0.85443 0.15545,-0.3107 0.31071,-0.69909 0.31071,-0.93211 0,-0.15545 0.0777,-0.38838 0.23304,-0.54374 0.15523,-0.23303 0.23302,-0.54373 0.23302,-0.77677 0,-0.23302 0.15545,-0.62141 0.3107,-0.85443 0.23305,-0.23304 0.38839,-0.54375 0.38839,-0.77677 0,-0.23302 0.0777,-0.54372 0.23302,-0.69908 0.15545,-0.15546 0.23304,-0.46607 0.23304,-0.69909 0,-0.15545 0.15523,-0.54373 0.31071,-0.77677 0.23302,-0.3107 0.3107,-0.62141 0.3107,-0.85443 0,-0.15545 0.15545,-0.46606 0.23302,-0.62142 0.15545,-0.23303 0.3107,-0.62141 0.38838,-0.93211 0.0777,-0.38839 0.23305,-0.69909 0.31071,-0.77677 0.15545,-0.15545 0.23304,-0.38839 0.23304,-0.54373 0,-0.23302 0.0777,-0.54374 0.23302,-0.69908 0.15545,-0.23302 0.31071,-0.62141 0.38839,-0.93211 0,-0.31073 0.15523,-0.69909 0.3107,-0.77677 0.15545,-0.15523 0.23302,-0.38838 0.23302,-0.62141 0,-0.15545 0.15545,-0.62142 0.3107,-0.93213 0.15545,-0.23302 0.31073,-0.6214 0.31073,-0.85442 0,-0.15545 0.15545,-0.46607 0.23302,-0.54375 0.15523,-0.0777 0.3107,-0.38838 0.3107,-0.62141 0,-0.23302 0.15545,-0.69908 0.31071,-0.9321 0.15545,-0.23305 0.3107,-0.62143 0.3107,-0.85445 0,-0.15523 0.0777,-0.38839 0.23304,-0.54373 0.0777,-0.0777 0.23302,-0.46606 0.31071,-0.77677 0.0777,-0.38838 0.23302,-0.69908 0.38838,-0.85445 0.0777,-0.0777 0.23302,-0.38838 0.23302,-0.6214 0,-0.3107 0.0777,-0.54373 0.23302,-0.69909 0.15545,-0.0777 0.23305,-0.3107 0.23305,-0.54372 0,-0.15545 0.15523,-0.62143 0.3107,-0.93213 0.23302,-0.38839 0.3107,-0.77675 0.38838,-0.93211 0,-0.15545 0.0777,-0.38839 0.23302,-0.62141 0.0777,-0.15545 0.23303,-0.46606 0.23303,-0.69908 0,-0.23305 0.0777,-0.54375 0.23304,-0.62141 0.0777,-0.15545 0.3107,-0.54375 0.38836,-0.93213 0.0777,-0.38838 0.23305,-0.77677 0.31073,-0.85443 0.15523,0 0.23302,-0.23304 0.23302,-0.38838 0,-0.0777 0.0777,-0.54375 0.3107,-0.85445 0.15523,-0.38839 0.3107,-0.85443 0.3107,-1.00979 0,-0.23302 0.0777,-0.46607 0.23303,-0.54373 0.15545,-0.15545 0.23304,-0.46606 0.23304,-0.69908 0,-0.23305 0.15545,-0.62143 0.3107,-0.85445 0.23302,-0.3107 0.38839,-0.62141 0.38839,-0.77677 0,-0.15545 0.15545,-0.62141 0.3107,-0.93211 0.15523,-0.3107 0.3107,-0.77677 0.3107,-0.93211 0,-0.23304 0.0777,-0.38838 0.23302,-0.46606 0.15545,-0.0777 0.23305,-0.31071 0.23305,-0.54373 0,-0.31072 0.15545,-0.62142 0.23302,-0.77676 0.15545,-0.23305 0.3107,-0.46607 0.3107,-0.62141 0,-0.0777 0.15545,-0.46607 0.31071,-0.85445 0.15545,-0.3107 0.3107,-0.69909 0.3107,-0.85445 0,-0.15523 0.0777,-0.46604 0.23304,-0.6214 0.15545,-0.15546 0.23302,-0.46605 0.23302,-0.54373 0,-0.15523 0.15545,-0.46606 0.31071,-0.77677 0.6214,-1.24281 0.69908,-1.9419 0.69908,-11.96216 0,-11.41841 0.23302,-19.96281 0.62141,-20.81724 0.0777,-0.38839 0.23304,-1.08747 0.23304,-1.63122 0,-0.6214 0.0777,-1.47583 0.31071,-2.01958 0.15545,-0.46604 0.3107,-1.16513 0.3107,-1.39817 0,-0.31071 0.0777,-0.699094 0.23302,-0.854434 0.15545,-0.23304 0.23302,-0.62143 0.23302,-0.85445 0,-0.3107 0.15545,-0.85443 0.31073,-1.16515 0.23302,-0.38836 0.38836,-0.85443 0.38836,-1.00979 0,-0.23302 0.0777,-0.62141 0.23304,-0.77675 0.15523,-0.15545 0.23302,-0.46606 0.23302,-0.62142 0,-0.23303 0.15545,-0.62141 0.31071,-1.00979 0.15545,-0.38839 0.3107,-0.77677 0.3107,-0.93211 0,-0.15545 0.15545,-0.31071 0.3107,-0.46607 0.0777,-0.0777 0.23305,-0.3107 0.23305,-0.46604 0,-0.15545 0.15545,-0.46607 0.3107,-0.77677 0.15523,-0.23304 0.3107,-0.62141 0.3107,-0.77677 0,-0.23302 0.15545,-0.46606 0.23302,-0.54372 0.15545,-0.15545 0.23305,-0.38839 0.31071,-0.54375 0,-0.0777 0.15545,-0.6214 0.46606,-1.00979 0.23302,-0.46606 0.54375,-1.08747 0.69909,-1.39817 0.15545,-0.23302 0.3107,-0.54373 0.38838,-0.62141 0.15545,0 0.23302,-0.15545 0.23302,-0.3107 0,-0.15545 0.23305,-0.62143 0.54375,-1.00979 0.23302,-0.46607 0.54372,-0.85445 0.62141,-1.00981 0.0777,-0.15545 0.38838,-0.62141 0.69908,-1.08745 0.31071,-0.46607 0.62141,-0.93213 0.77677,-1.08747 0.0777,-0.23305 0.38839,-0.62143 0.69909,-0.93213 0.23302,-0.31071 0.54372,-0.69909 0.6214,-0.85443 0.0777,-0.15545 0.46607,-0.62141 0.93211,-1.08747 0.38839,-0.38839 0.85445,-1.00979 1.08747,-1.32049 0.38839,-0.54375 1.16516,-1.47586 1.63122,-1.86424 0.23302,-0.23303 0.62141,-0.62141 1.70888,-1.70888 0.38838,-0.38838 0.93211,-0.85445 1.24281,-1.08747 0.3107,-0.15523 1.00979,-0.69909 1.47585,-1.16515 0.46607,-0.46605 1.24282,-1.08747 1.70888,-1.39818 0.46607,-0.3107 1.00979,-0.69908 1.16515,-0.85442 0.15545,-0.15546 0.93211,-0.69909 1.6312,-1.16516 0.77677,-0.46606 1.47585,-0.93211 1.63119,-1.00979 0.15545,-0.15545 0.54375,-0.3107 0.85445,-0.46606 0.23302,-0.15523 0.93211,-0.54373 1.47586,-0.85443 0.46604,-0.3107 1.08747,-0.6214 1.32049,-0.69909 0.23302,-0.15545 0.69909,-0.3107 1.00979,-0.54374 0.38838,-0.15545 0.77677,-0.31071 0.85445,-0.31071 0.15545,0 0.3107,-0.0777 0.46604,-0.23302 0.0777,-0.0777 0.38839,-0.23302 0.54375,-0.23302 0.23302,0 0.46604,-0.0777 0.62141,-0.23304 0.0777,-0.15523 0.3107,-0.23302 0.46606,-0.23302 0.15545,0 0.54373,-0.15545 0.85443,-0.31071 0.3107,-0.23304 0.69908,-0.38838 0.93211,-0.38838 0.15545,0 0.38838,-0.0777 0.62142,-0.23302 0.15545,-0.0777 0.62141,-0.23305 0.93211,-0.31073 0.38839,-0.0777 0.77677,-0.23302 1.00979,-0.3107 0.15545,-0.15523 0.54375,-0.23302 0.85445,-0.23302 0.3107,0 0.77675,-0.15545 0.93211,-0.23302 0.15545,-0.15545 0.69909,-0.31071 1.24281,-0.38839 0.46607,-0.0777 1.00981,-0.23304 1.24284,-0.3107 0.23302,-0.15545 0.77676,-0.23304 1.24281,-0.23304 0.46606,0 1.24283,-0.15523 1.78655,-0.38839 1.00979,-0.3107 1.08748,-0.3107 17.632537,-0.38836 17.94322,-0.0777 24.00198,0.0777 24.85643,0.46604 0.3107,0.15545 0.85442,0.31071 1.32049,0.31071 0.46606,0 1.16515,0.0777 1.47585,0.23304 0.38839,0.15523 0.93211,0.23302 1.3205,0.3107 0.38838,0.0777 0.93211,0.23302 1.24281,0.38839 0.23304,0.0777 0.62143,0.23302 0.93213,0.23302 0.23302,0 0.54372,0.0777 0.77674,0.23302 0.15546,0.0777 0.62143,0.23304 1.08748,0.3107 0.38838,0.0777 0.85445,0.23305 0.93213,0.31073 0.0777,0.15523 0.38838,0.23302 0.54372,0.23302 0.23302,0 0.69909,0.15545 1.00979,0.38838 0.38838,0.15523 0.77677,0.31071 0.93213,0.31071 0.15523,0 0.3107,0.0777 0.46604,0.23302 0.0777,0.15545 0.31071,0.23304 0.46607,0.23304 0.23302,0 0.54372,0.15523 0.77677,0.3107 0.23302,0.23303 0.54372,0.38839 0.77674,0.38839 0.23305,0 0.38839,0.0777 0.46607,0.23302 0.0777,0.0777 0.3107,0.23302 0.46606,0.23302 0.23303,0 0.46605,0.0777 0.54373,0.15545 0.0777,0.0777 0.3107,0.3107 0.6214,0.38839 0.54375,0.3107 0.69909,0.38838 2.01961,1.16513 0.46604,0.31072 0.9321,0.54374 1.00979,0.54374 0.0777,0 0.23302,0.15523 0.46604,0.31071 0.15545,0.23302 0.31072,0.38838 0.46606,0.38838 0.0777,0 0.54373,0.23302 1.00979,0.62141 0.46607,0.3107 1.39818,0.9321 2.01958,1.39817 1.63122,1.24283 2.09726,1.55354 3.9615,3.34009 2.79635,2.64099 4.97129,4.97127 5.82572,6.13642 0.3107,0.38839 0.77677,1.00979 1.08747,1.39818 0.23305,0.3107 0.62141,0.85442 0.85445,1.24281 0.23302,0.3107 0.46604,0.69909 0.54373,0.77677 0.15523,0.0777 0.38838,0.54374 0.6214,0.93211 0.23305,0.46606 0.46607,0.85444 0.62143,0.85444 0.0777,0.0777 0.15545,0.23303 0.15545,0.46607 0,0.15545 0.15523,0.38838 0.38836,0.54372 0.15545,0.15545 0.31073,0.46607 0.31073,0.62141 0,0.0777 0.0777,0.3107 0.23302,0.46607 0.15523,0.0777 0.23302,0.38838 0.3107,0.6214 0.0777,0.3107 0.15545,0.46607 0.23302,0.46607 0.0777,0 0.31071,0.38838 0.46607,0.77676 0.23302,0.46605 0.6214,1.39818 0.93211,2.09727 0.3107,0.69908 0.62142,1.32049 0.62142,1.47583 0,0.0777 0.0777,0.31072 0.23303,0.54374 0.23302,0.38839 0.69908,1.47586 0.9321,2.40797 0.0777,0.38838 0.23305,0.77677 0.38839,0.93211 0.0777,0.0777 0.23302,0.38838 0.23302,0.69908 0,0.23305 0.0777,0.69909 0.23304,1.00979 0.15545,0.23305 0.31071,0.77677 0.31071,1.16516 0.0777,0.466064 0.23302,0.854454 0.3107,1.009794 0.0777,0.0777 0.23302,0.6214 0.3107,1.08747 0.0777,0.54374 0.23302,1.39817 0.38839,1.86424 0.0777,0.46604 0.23302,1.39817 0.23302,2.09726 0,0.6214 0.0777,1.63119 0.23304,2.33028 0.23302,0.93211 0.23302,3.34009 0.23302,14.83619 0,13.36033 0,13.74869 0.31071,14.37012 0.23302,0.3107 0.38838,0.77675 0.38838,0.93211 0,0.23302 0.0777,0.46606 0.23302,0.54372 0.0777,0.15545 0.23305,0.38839 0.23305,0.54375 0,0.15545 0.15545,0.54372 0.3107,0.93211 0.15545,0.3107 0.3107,0.69908 0.3107,0.93211 0,0.15545 0.15545,0.46606 0.23302,0.54374 0.15523,0.15545 0.31071,0.38839 0.31071,0.54373 0,0.23304 0.15545,0.62142 0.3107,1.00979 0.15545,0.31072 0.31072,0.69908 0.31072,0.85445 0,0.23302 0.0777,0.46606 0.23303,0.54372 0.15523,0.0777 0.23302,0.38838 0.23302,0.54375 0,0.23302 0.15523,0.6214 0.38838,0.93211 0.15545,0.38838 0.3107,0.77676 0.3107,0.93213 0,0.15545 0.0777,0.38836 0.23305,0.6214 0.15523,0.15545 0.23302,0.38839 0.23302,0.54373 0,0.15545 0.15523,0.54374 0.3107,0.85445 0.23302,0.38838 0.3107,0.77676 0.3107,1.00979 0,0.23302 0.15546,0.46606 0.31071,0.6214 0.0777,0.0777 0.23304,0.3107 0.23304,0.46607 0,0.15545 0.15523,0.54372 0.3107,0.9321 0.15545,0.31071 0.31071,0.69909 0.31071,0.85445 0,0.15545 0.15545,0.38839 0.23302,0.62141 0.15545,0.15545 0.23302,0.46607 0.23302,0.69909 0,0.23302 0.15545,0.6214 0.38838,0.93211 0.15545,0.23304 0.31071,0.6214 0.31071,0.85444 0,0.31071 0.0777,0.54373 0.23304,0.62141 0.15545,0.15545 0.3107,0.54372 0.3107,0.85445 0.0777,0.38836 0.23303,0.69909 0.38839,0.85443 0.0777,0.0777 0.23302,0.38838 0.23302,0.6214 0,0.23305 0.0777,0.54375 0.23302,0.62143 0.0777,0.15523 0.23304,0.54373 0.31073,0.85443 0.0777,0.38838 0.23302,0.69908 0.3107,0.85445 0.15545,0.0777 0.23302,0.38838 0.23302,0.6214 0,0.23302 0.15545,0.54373 0.23302,0.62141 0.15545,0.0777 0.3107,0.46606 0.3107,0.69909 0.0777,0.3107 0.23305,0.77676 0.38839,1.00979 0.77677,1.70887 0.85445,2.09726 0.85445,2.3303 0,0.23302 0.15523,0.46604 0.3107,0.54372 0.0777,0.15545 0.23303,0.38839 0.23303,0.62141 0,0.23304 0.15545,0.62141 0.3107,1.00979 0.15545,0.3107 0.31072,0.69909 0.31072,0.85445 0,0.15545 0.15523,0.38838 0.23303,0.54372 0.15523,0.23305 0.23302,0.54375 0.23302,0.69909 0.0777,0.23304 0.15523,0.69909 0.3107,1.00979 0.77677,1.39817 0.85445,1.7089 0.85445,1.86424 0,0.0777 0.15523,0.46606 0.3107,0.85445 0.23302,0.38838 0.38839,0.85443 0.38839,1.08747 0,0.23302 0.0777,0.46604 0.23302,0.54372 0.15523,0 0.23304,0.31071 0.23304,0.54373 0,0.23304 0.15523,0.62143 0.3107,0.93213 0.15545,0.23302 0.31071,0.6214 0.31071,0.85443 0,0.15545 0.15545,0.38838 0.3107,0.54374 0.0777,0.0777 0.23302,0.31071 0.23302,0.54373 0,0.15523 0.15523,0.6214 0.3107,0.93213 0.15546,0.38836 0.31071,0.85443 0.31071,1.00979 0,0.23302 0.15545,0.46604 0.23304,0.54372 0.15545,0.0777 0.23302,0.23302 0.23302,0.46607 0,0.15545 0.15545,0.6214 0.38839,0.93211 0.15545,0.38838 0.3107,0.77676 0.3107,0.9321 0,0.15546 0.0777,0.46607 0.23302,0.54375 0.15545,0.15545 0.23304,0.38839 0.23304,0.54373 0,0.15545 0.15546,0.62142 0.31071,1.00979 0.23302,0.31072 0.3107,0.69908 0.3107,0.85444 0.0777,0.0777 0.15545,0.46607 0.38838,0.77677 0.15523,0.31071 0.31071,0.69909 0.31071,0.85443 0,0.15545 0.23302,0.69909 0.85445,2.09726 0.15523,0.3107 0.3107,0.77677 0.3107,0.93213 0,0.0777 0.0777,0.46605 0.23302,0.69909 0.54373,1.16513 0.69909,1.63119 0.85445,2.09726 0,0.3107 0.15523,0.62141 0.3107,0.77675 0.0777,0.0777 0.23303,0.31072 0.23303,0.54374 0,0.23302 0.15545,0.69909 0.3107,0.93211 0.15545,0.3107 0.3107,0.69909 0.3107,0.93213 0,0.23302 0.15545,0.54373 0.23304,0.62141 0.15546,0.15545 0.23303,0.38838 0.23303,0.54372 0,0.15545 0.15523,0.54375 0.38838,0.93213 0.15545,0.3107 0.3107,0.69909 0.3107,0.93211 0,0.15523 0.0777,0.46607 0.23302,0.69909 0.15524,0.23302 0.23305,0.54372 0.23305,0.77677 0,0.15545 0.15523,0.6214 0.3107,0.9321 0.23302,0.54373 0.3107,1.00979 0.38839,2.25263 0,1.47583 -0.23305,2.09726 -0.85445,3.26239 -0.0777,0.15545 -0.23303,0.38838 -0.31071,0.6214 -0.0777,0.23305 -0.38838,0.69909 -0.69908,1.00982 -0.23303,0.3107 -0.46607,0.69908 -0.46607,0.77674 0,0.15545 -0.3107,0.54375 -0.6214,0.85445 -0.38839,0.38839 -0.85445,1.00979 -1.08748,1.32049 -0.46606,0.69909 -2.09726,2.33029 -3.72845,3.72846 -0.77677,0.62143 -1.70888,1.47586 -2.17494,1.86424 -0.38839,0.38838 -0.85445,0.77677 -0.93211,0.77677 -0.15545,0 -0.54375,0.3107 -0.93213,0.6214 -0.38839,0.38839 -0.77675,0.69909 -0.85443,0.69909 -0.0777,0 -0.62141,0.3107 -1.16515,0.77677 -0.62141,0.46604 -1.16515,0.85443 -1.24281,0.85443 -0.0777,0 -0.23305,0.0777 -0.38839,0.15545 -0.38839,0.38838 -1.16515,0.93213 -1.47586,1.00979 -0.23302,0.0777 -0.46606,0.23304 -0.46606,0.38838 -0.0777,0.0777 -0.23302,0.23304 -0.3107,0.23304 -0.15546,0 -0.62141,0.23303 -1.16514,0.54373 -0.46606,0.3107 -0.85444,0.6214 -0.93213,0.6214 -0.0777,0 -0.46604,0.15545 -0.85442,0.46607 -0.38839,0.23302 -0.93213,0.54372 -1.08747,0.6214 -0.23305,0.0777 -0.93213,0.46607 -1.55354,0.85445 -0.62141,0.31071 -1.24281,0.69909 -1.39817,0.69909 -0.46605,0.23302 -1.86422,0.93211 -2.71867,1.39817 -0.38838,0.23303 -0.93211,0.46605 -1.08747,0.46605 -0.15523,0 -0.3107,0.15545 -0.46607,0.3107 -0.0777,0.0777 -0.38836,0.23304 -0.69908,0.31073 -0.31071,0.0777 -0.62141,0.23302 -0.77675,0.3107 -0.0777,0.15545 -0.23304,0.23302 -0.38838,0.23302 -0.0777,0 -0.46607,0.15545 -0.77677,0.3107 -0.3107,0.23302 -0.77677,0.38839 -0.93211,0.38839 -0.15545,0 -0.38838,0.0777 -0.46607,0.23302 -0.15545,0.0777 -0.3107,0.23304 -0.46606,0.23304 -0.15545,0 -0.54373,0.15545 -0.93211,0.31071 -0.3107,0.15545 -0.69909,0.3107 -0.85445,0.3107 -0.23302,0 -0.46604,0.15545 -0.54372,0.23302 -0.0777,0.15545 -0.31071,0.3107 -0.54373,0.3107 -0.15545,0 -0.54374,0.0777 -0.85445,0.31071 -0.38838,0.15545 -0.77677,0.31072 -1.00979,0.31072 -0.15545,0 -0.46606,0.15545 -0.6214,0.23302 -0.15545,0.15523 -0.38839,0.23302 -0.54375,0.23302 -0.0777,0 -0.46604,0.15545 -0.69909,0.23305 -0.3107,0.15545 -0.85442,0.3107 -1.24281,0.46604 -0.38838,0.0777 -0.69908,0.23304 -0.77677,0.3107 -0.0777,0.0777 -0.3107,0.15545 -0.54372,0.15545 -0.23304,0 -0.69909,0.15523 -1.00981,0.31071 -0.23302,0.23304 -0.77675,0.3107 -1.00979,0.3107 -0.3107,0 -0.69909,0.15545 -0.77675,0.31072 -0.15545,0.0777 -0.38838,0.23303 -0.62143,0.23303 -0.23302,0 -0.69908,0.15545 -1.08747,0.3107 -0.3107,0.15545 -0.85442,0.3107 -1.16513,0.3107 -0.23304,0 -0.6214,0.15545 -0.85445,0.23302 -0.15545,0.15545 -0.54372,0.23305 -0.77676,0.23305 -0.23303,0 -0.77675,0.15545 -1.08745,0.38838 -0.38839,0.15545 -0.93213,0.3107 -1.24284,0.3107 -0.3107,0 -0.77676,0.0777 -0.93211,0.23303 -0.15545,0.15545 -0.54374,0.23302 -0.77676,0.23302 -0.23303,0 -0.85443,0.15545 -1.39818,0.31072 -0.46606,0.23302 -1.16515,0.38836 -1.47585,0.38836 -0.31071,0 -0.77675,0.0777 -0.93211,0.23305 -0.15545,0.0777 -0.77677,0.23302 -1.39817,0.3107 -0.54373,0.0777 -1.16516,0.23302 -1.39818,0.3107 -0.15545,0.0777 -0.77677,0.23303 -1.39817,0.23303 -0.54373,0.0777 -1.3205,0.23304 -1.70888,0.38838 -0.3107,0.15545 -1.00979,0.3107 -1.55354,0.3107 -0.46604,0 -1.16513,0.0777 -1.55351,0.23305 -0.3107,0.15545 -1.08747,0.23302 -1.70888,0.23302 -0.62142,0 -1.39817,0.15545 -1.70887,0.23302 -0.38839,0.15545 -1.39818,0.3107 -2.40799,0.38838 -1.00979,0 -2.17492,0.15523 -2.64098,0.31071 -0.46607,0.15545 -1.55354,0.23304 -2.56333,0.23304 -1.08747,0 -2.2526,0.0777 -2.79635,0.23302 -0.85443,0.23302 -2.5633,0.23302 -9.08813,0.3107 -4.42754,0 -9.165787,0 -10.563957,-0.0777 z M 66.128443,222.6745 c 0.15523,-0.23304 0.46606,-0.38838 0.6214,-0.38838 0.23305,0 0.69909,-0.38839 1.39818,-1.08747 0.77676,-0.85445 1.00981,-1.16515 1.00981,-1.55354 0,-0.3107 0.0777,-0.69909 0.23302,-0.77674 0.23302,-0.15545 0.23302,-0.38839 0.15545,-1.08748 -0.0777,-0.46606 -0.23302,-1.08747 -0.3107,-1.24283 -0.15545,-0.15545 -0.31071,-0.46604 -0.31071,-0.69909 0,-0.15545 -0.38838,-0.69908 -0.93213,-1.24281 -1.70887,-1.70887 -4.03916,-2.09726 -5.67035,-0.93211 -0.38838,0.23303 -0.77677,0.46605 -0.85445,0.46605 -0.23302,0 -1.16515,1.32049 -1.16515,1.55353 0,0.15545 -0.0777,0.31071 -0.23302,0.38839 -0.23303,0.15545 -0.23303,0.6214 -0.23303,2.01958 0,1.32049 0,1.78656 0.23303,1.9419 0.15545,0.0777 0.23302,0.3107 0.23302,0.38838 0,0.38838 0.93213,1.32049 1.70887,1.70888 0.31073,0.23304 0.85445,0.46606 1.08748,0.62142 0.23304,0.0777 0.85444,0.23303 1.55353,0.23303 1.00979,0 1.24281,-0.0777 1.47586,-0.31071 z m 78.919137,-0.0777 c 0.15545,-0.15545 0.46606,-0.3107 0.62143,-0.3107 0.23302,0 0.69908,-0.31071 1.24281,-0.85445 0.69908,-0.69909 1.00979,-1.16513 1.24281,-1.9419 0.46606,-1.3205 0.46606,-1.94192 0,-3.02937 -0.38836,-1.00981 -1.9419,-2.79635 -2.40797,-2.79635 -0.15523,0 -0.46604,-0.15545 -0.6214,-0.3107 -0.3107,-0.23305 -0.77677,-0.31073 -1.55352,-0.23305 -1.78655,0 -3.10705,0.77677 -4.19452,2.40797 -0.62142,1.00979 -0.62142,1.00979 -0.62142,2.56332 0,0.93211 0,1.6312 0.15545,1.70888 0.0777,0 0.23304,0.3107 0.38838,0.62141 0.3107,0.69908 0.93213,1.32049 2.09726,1.94192 0.85445,0.46604 1.16515,0.54372 2.17494,0.54372 1.00979,0 1.24281,0 1.47586,-0.3107 z m -44.43084,-17.39951 c 0.0777,-7.22389 0.0777,-13.20497 0,-13.28266 0,-0.0777 -2.097257,-0.15545 -4.893607,-0.15545 0,0 -4.81595,0.0777 -4.81595,0.0777 0,0 0,13.12731 0,13.12731 0,0 0,13.20497 0,13.20497 0,0 4.66059,0.0777 4.66059,0.0777 2.56332,0 4.738237,0.0777 4.815927,0.0777 0.15523,0 0.23304,-4.5829 0.23304,-13.12731 z m -16.389717,12.7389 c 0.23304,-0.23302 0.23304,-1.32049 0.23304,-9.78722 0,-5.20431 0,-9.55417 -0.0777,-9.55417 -0.3107,-0.23304 -0.93213,0.3107 -3.72847,3.10705 0,0 -3.02937,3.02937 -3.02937,3.02937 0,0 0,6.36946 0,6.36946 0,4.97129 0.0777,6.44713 0.23302,6.60249 0.46606,0.38838 1.32051,0.46606 3.65079,0.54372 2.01958,0 2.48565,-0.0777 2.71867,-0.3107 z m 32.624057,0.15545 c 0.15545,-0.15545 0.23302,-1.78656 0.23302,-13.04961 0.0777,-9.47651 0,-12.89426 -0.0777,-13.04963 -0.15546,-0.23302 -1.08748,-0.23302 -4.89361,-0.23302 0,0 -4.66057,0.0777 -4.66057,0.0777 0,0 -0.0777,12.89426 -0.0777,12.89426 0,8.69975 0,12.97195 0.15523,13.20498 0.15545,0.3107 0.38838,0.3107 4.5829,0.3107 2.56331,0 4.58291,-0.0777 4.73825,-0.15523 z m 12.81659,-0.23302 c 0.31072,-0.0777 0.54374,-0.23304 0.62142,-0.38838 0,-0.0777 0.15545,-2.95171 0.15545,-6.29179 0,0 0.15523,-6.2141 0.15523,-6.2141 0,0 -3.18473,-3.18473 -3.18473,-3.18473 -2.25262,-2.17494 -3.34009,-3.18473 -3.49543,-3.10705 -0.23302,0.0777 -0.23302,1.24281 -0.23302,9.70954 0,5.28199 0.0777,9.70953 0.15545,9.78721 0.15545,0.15545 5.20431,-0.0777 5.82571,-0.3107 z M 26.901893,207.52766 c 1.00981,-0.69909 1.24283,-1.00979 1.24283,-1.39818 0,-0.23302 0.15545,-0.6214 0.3107,-0.93211 0.15545,-0.23302 0.31071,-0.6214 0.31071,-0.77676 0,-0.23303 0.0777,-0.46607 0.23302,-0.54373 0.15545,-0.15545 0.23304,-0.46606 0.23304,-0.69909 0,-0.23304 0.15523,-0.62142 0.38839,-0.85444 0.15545,-0.31071 0.3107,-0.69909 0.3107,-0.85443 0,-0.23305 0.0777,-0.46607 0.23302,-0.54375 0.0777,-0.0777 0.23302,-0.46606 0.3107,-0.85443 0.0777,-0.31072 0.23305,-0.69908 0.31071,-0.77676 0.15545,-0.15523 0.23304,-0.46607 0.23304,-0.69909 0,-0.3107 0.15523,-0.54375 0.3107,-0.54375 0.0777,-0.0777 0.23302,-0.3107 0.23302,-0.54372 0,-0.23302 0.15546,-0.69909 0.31071,-0.93211 0.15545,-0.23304 0.3107,-0.62143 0.3107,-0.85445 0,-0.15545 0.0777,-0.38838 0.23304,-0.54372 0.15523,-0.0777 0.23303,-0.46607 0.31071,-0.77677 0.0777,-0.38839 0.23302,-0.77677 0.38838,-0.93213 0.0777,-0.15523 0.23302,-0.46605 0.23302,-0.62141 0,-0.23302 0.0777,-0.54372 0.23302,-0.69909 0.15545,-0.0777 0.23305,-0.46604 0.23305,-0.69908 0,-0.31071 0.15545,-0.62141 0.3107,-0.77677 0.23302,-0.15523 0.38838,-0.46604 0.38838,-0.77675 0,-0.23304 0.0777,-0.46606 0.15546,-0.54374 0.0777,0 0.23302,-0.38839 0.3107,-0.77677 0.0777,-0.38836 0.3107,-0.77675 0.38838,-0.93211 0.15545,-0.0777 0.23302,-0.38838 0.3107,-0.62141 0.0777,-0.54374 0.54373,-1.70887 0.85443,-2.40796 0.38839,-0.85445 0.69909,-1.78656 0.77677,-2.25262 0.0777,-0.31071 0.23304,-0.62141 0.38838,-0.77677 0.0777,-0.0777 0.23303,-0.3107 0.23303,-0.54373 0,-0.15545 0.0777,-0.46606 0.23304,-0.6214 0.15545,-0.23304 0.23302,-0.46607 0.23302,-0.62141 0,-0.0777 0.15545,-0.46606 0.3107,-0.85445 0.15545,-0.38838 0.38839,-0.85445 0.38839,-1.00979 0.23302,-0.85445 0.77677,-2.09726 0.93211,-2.25262 0.0777,-0.0777 0.15545,-0.38838 0.15545,-0.6214 0,-0.23303 0.15545,-0.54373 0.23304,-0.62141 0.15545,-0.15545 0.3107,-0.46607 0.38839,-0.85445 0.0777,-0.3107 0.15545,-0.69909 0.3107,-0.77675 0.15523,-0.15545 0.23302,-0.38838 0.23302,-0.54374 0,-0.15545 0.15545,-0.62141 0.3107,-0.93211 0.15545,-0.38838 0.31071,-0.77677 0.31071,-0.93213 0,-0.23302 0.15545,-0.46604 0.3107,-0.54373 0.0777,-0.0777 0.23304,-0.3107 0.23304,-0.46606 0,-0.15545 0.15545,-0.54373 0.3107,-0.85443 0.15524,-0.38838 0.31071,-0.77677 0.31071,-1.00979 0,-0.23304 0.15545,-0.46606 0.23302,-0.54374 0.15545,0 0.23304,-0.23303 0.23304,-0.54373 0,-0.23304 0.15545,-0.62141 0.38839,-0.93213 0.15545,-0.23302 0.3107,-0.62141 0.3107,-0.85443 0,-0.15545 0.0777,-0.38838 0.23302,-0.54374 0.15545,-0.0777 0.3107,-0.46605 0.3107,-0.85443 0.0777,-0.38839 0.23303,-0.85445 0.38839,-0.93211 0.0777,-0.0777 0.23302,-0.38838 0.23302,-0.54375 0,-0.23302 0.0777,-0.46606 0.23304,-0.54372 0.0777,-0.15545 0.23303,-0.38838 0.23303,-0.62143 0,-0.15545 0.15523,-0.6214 0.3107,-0.93211 0.15545,-0.3107 0.3107,-0.77677 0.3107,-0.93211 0,-0.15523 0.15545,-0.38838 0.23304,-0.6214 0.15546,-0.15545 0.23303,-0.38839 0.31071,-0.62143 0,-0.15545 0.15523,-0.6214 0.3107,-1.00979 0.62141,-1.39817 0.77677,-1.78656 0.85443,-2.2526 0.0777,-0.23304 0.23304,-0.54375 0.38838,-0.69909 0.0777,-0.0777 0.23305,-0.38838 0.23305,-0.54374 0,-0.23302 0.0777,-0.54373 0.23302,-0.69909 0.15545,-0.15545 0.23302,-0.46604 0.23302,-0.54372 0,-0.15546 0.15545,-0.54375 0.3107,-0.93214 0.23305,-0.3107 0.3107,-0.69908 0.38839,-0.77674 0,-0.0777 0.0777,-0.46607 0.3107,-0.85445 0.15545,-0.38838 0.3107,-0.77677 0.3107,-0.93211 0,-0.15523 0.0777,-0.38838 0.23304,-0.46606 0.15524,-0.0777 0.23303,-0.38839 0.23303,-0.54373 0,-0.23304 0.15523,-0.54375 0.3107,-0.85445 0.23304,-0.23302 0.38838,-0.6214 0.38838,-0.85443 0,-0.15545 0.0777,-0.38838 0.23303,-0.54374 0.0777,-0.0777 0.23304,-0.31071 0.23304,-0.46607 0,-0.15545 0.15545,-0.54372 0.3107,-0.85442 0.15523,-0.31071 0.3107,-0.77677 0.3107,-0.93211 0,-0.15545 0.15523,-0.38839 0.23303,-0.54375 0.15545,-0.0777 0.3107,-0.3107 0.3107,-0.46607 0,-0.15545 0.0777,-0.46604 0.31072,-0.6214 0.15545,-0.23302 0.31071,-0.54373 0.31071,-0.69909 0,-0.15545 0.0777,-0.38838 0.23302,-0.46604 0.15523,-0.0777 0.23302,-0.38839 0.23302,-0.54375 0,-0.23302 0.15545,-0.54372 0.38838,-0.69908 0.15545,-0.15546 0.31071,-0.38839 0.31071,-0.54373 0,-0.15545 0.0777,-0.38838 0.23304,-0.46606 0.15545,-0.15545 0.23302,-0.38839 0.23302,-0.54373 0,-0.15545 0.15545,-0.46606 0.3107,-0.69909 0.23303,-0.23304 0.31071,-0.46606 0.31071,-0.54374 0,-0.15545 0.3107,-0.54373 0.6214,-1.00979 0.31073,-0.38839 0.54375,-0.77677 0.54375,-0.85443 0,-0.0777 0.54372,-0.85445 1.16515,-1.63122 1.55352,-2.01958 3.8838,-4.2722 5.51502,-5.35965 0.23302,-0.15545 0.6214,-0.38838 0.9321,-0.62143 0.23303,-0.23302 0.54375,-0.38838 0.69909,-0.38838 0.0777,0 0.23302,-0.0777 0.38839,-0.23302 0.0777,-0.15545 0.3107,-0.23302 0.46606,-0.23302 0.15545,0 0.38839,-0.15523 0.54373,-0.31071 0.15523,-0.23304 0.46606,-0.38838 0.69908,-0.38838 0.15545,0 0.46607,-0.0777 0.54375,-0.23304 0.15545,-0.0777 0.38836,-0.23303 0.6214,-0.23303 0.23303,0 0.69909,-0.15545 0.93211,-0.3107 0.31071,-0.15545 0.77677,-0.3107 1.00979,-0.3107 0.31071,0 0.69909,-0.15545 0.93213,-0.23302 0.15523,-0.15545 0.93211,-0.31073 1.6312,-0.31073 0.77677,-0.0777 1.63119,-0.23302 2.01958,-0.38836 0.93211,-0.31072 6.83553,-0.31072 7.68995,0 0.31071,0.15523 1.00979,0.3107 1.6312,0.38836 0.62143,0 1.24283,0.15545 1.39817,0.31073 0.23305,0.0777 0.54375,0.23302 0.77677,0.23302 0.31071,0 0.77677,0.15545 1.08747,0.3107 0.31071,0.15545 0.77677,0.3107 0.93211,0.3107 0.15545,0 0.46607,0.0777 0.69909,0.23303 0.23304,0.15545 0.85445,0.38838 1.24283,0.62142 0.46607,0.15545 1.24281,0.54373 1.6312,0.77675 0.46606,0.23304 1.24283,0.62143 1.78656,0.85445 0.46606,0.23302 1.00979,0.6214 1.08747,0.69909 0.15545,0.15545 0.38838,0.23302 0.54372,0.23302 0.15545,0 0.31073,0.15545 0.46607,0.23304 0.0777,0.15545 0.54374,0.46604 1.00979,0.69909 0.46606,0.23302 0.93213,0.46604 1.08747,0.54372 0.85445,0.46607 1.864237,0.85445 2.407957,0.85445 0.38838,0 1.00979,0.0777 1.39817,0.23302 0.85445,0.31071 2.48565,0.31071 3.3401,0 0.3107,-0.15545 0.85443,-0.23302 1.24281,-0.23302 0.3107,0 0.69909,-0.0777 0.85445,-0.23304 0.15545,-0.15545 0.54372,-0.3107 0.85443,-0.3107 0.3107,-0.0777 0.6214,-0.23303 0.69908,-0.38839 0.15523,-0.15545 0.31071,-0.23302 0.46607,-0.23302 0.23302,0 0.46606,-0.0777 0.54372,-0.23302 0.15545,-0.0777 0.38839,-0.23305 0.62143,-0.3107 0.15545,-0.0777 0.77675,-0.46607 1.32049,-0.77677 1.24282,-0.85445 1.3205,-0.93213 1.6312,-1.00979 0.15545,-0.0777 0.38838,-0.15545 0.46606,-0.31071 0.15546,-0.0777 0.46605,-0.23304 0.69909,-0.31072 0.23302,-0.0777 0.46604,-0.23302 0.62141,-0.3107 0.15545,-0.0777 0.6214,-0.31071 1.08747,-0.46605 0.46606,-0.23304 1.00979,-0.46606 1.24281,-0.62142 0.23304,-0.0777 0.54375,-0.23303 0.77677,-0.23303 0.15545,0 0.6214,-0.15545 0.93211,-0.3107 0.31072,-0.15545 0.85445,-0.3107 1.08747,-0.3107 0.3107,0 0.62143,-0.15545 0.85445,-0.23302 0.15523,-0.15545 0.54372,-0.31073 0.93211,-0.31073 0.3107,0 1.00979,-0.0777 1.55353,-0.3107 0.93211,-0.23302 1.47586,-0.3107 4.19452,-0.3107 2.48565,0 3.34008,0.0777 3.96148,0.23304 0.38838,0.15523 1.32052,0.3107 2.09726,0.38836 0.69909,0.0777 1.47586,0.23305 1.63122,0.31073 0.23302,0.15523 0.6214,0.23302 1.00979,0.23302 0.3107,0 0.77677,0.15545 1.00979,0.3107 0.23302,0.15545 0.54372,0.3107 0.69909,0.3107 0.15545,0 0.54372,0.15545 0.9321,0.31071 0.31071,0.23304 0.69909,0.38838 0.77677,0.38838 0.0777,0 0.31071,0.0777 0.38839,0.23302 0.0777,0.0777 0.3107,0.23305 0.38838,0.23305 0.15545,0 0.62141,0.23302 1.08747,0.54372 0.46604,0.3107 0.93211,0.62141 1.00979,0.62141 0.0777,0 0.38839,0.23304 0.69909,0.54374 0.3107,0.31071 0.6214,0.54373 0.69909,0.54373 0.23302,0 2.40796,2.09726 3.34007,3.26241 0.54374,0.69909 1.08747,1.32049 1.24283,1.39817 0.0777,0.0777 0.15545,0.15545 0.15545,0.31071 0,0.0777 0.38836,0.6214 0.85443,1.32049 0.46606,0.62143 0.77677,1.24283 0.77677,1.32051 0,0.15546 0.15523,0.31071 0.38838,0.46605 0.15545,0.23304 0.3107,0.38838 0.3107,0.46606 0,0.0777 0.23303,0.54373 0.54373,1.00979 0.3107,0.46607 0.62143,0.93211 0.62143,1.08747 0,0.15545 0.0777,0.38839 0.23302,0.46605 0.15523,0.15545 0.23302,0.31072 0.23302,0.46606 0,0.15545 0.15523,0.46607 0.3107,0.69909 0.15545,0.23302 0.3107,0.46606 0.3107,0.62141 0,0.0777 0.15546,0.46606 0.38839,0.85444 0.15545,0.31071 0.3107,0.69909 0.3107,0.77677 0,0.15545 0.0777,0.31071 0.23305,0.46605 0.15545,0.15545 0.23302,0.38838 0.23302,0.54374 0,0.23302 0.15545,0.62141 0.3107,0.93211 0.23304,0.38838 0.3107,0.77677 0.3107,0.93211 0,0.0777 0.15545,0.31072 0.31071,0.46606 0.0777,0.0777 0.23304,0.31071 0.23304,0.46607 0,0.15545 0.15545,0.62141 0.3107,0.93211 0.15523,0.3107 0.3107,0.69909 0.3107,0.85445 0,0.15545 0.15546,0.38838 0.23303,0.46604 0.15545,0.15545 0.3107,0.38839 0.3107,0.62143 0,0.23302 0.0777,0.69909 0.31072,1.00979 0.15523,0.3107 0.31071,0.69909 0.31071,0.85443 0,0.15523 0.0777,0.38838 0.23302,0.46606 0.15545,0.15545 0.23302,0.38839 0.23302,0.54373 0,0.15545 0.15545,0.54374 0.3107,0.93213 0.23305,0.3107 0.38839,0.69908 0.38839,0.85442 0,0.0777 0.0777,0.38839 0.23304,0.54375 0.15545,0.15545 0.23302,0.46604 0.23302,0.62141 0,0.23302 0.15545,0.6214 0.31071,0.85442 0.15545,0.31073 0.3107,0.62143 0.3107,0.85445 0,0.15545 0.15523,0.38839 0.3107,0.54373 0.0777,0.0777 0.23304,0.38838 0.23304,0.62142 0,0.15546 0.15546,0.62141 0.31071,0.85443 0.15545,0.3107 0.3107,0.69909 0.3107,0.85445 0,0.23302 0.15523,0.46604 0.23302,0.69909 0.15523,0.15545 0.23305,0.38838 0.23305,0.54372 0,0.15523 0.15523,0.54375 0.38836,0.85445 0.15545,0.38839 0.31072,0.77677 0.31072,0.93211 0,0.15545 0.0777,0.46607 0.23302,0.62141 0.15545,0.15545 0.23303,0.38838 0.23303,0.54374 0,0.0777 0.15523,0.54373 0.3107,0.85443 0.62143,1.32051 0.77677,1.86424 0.93213,2.3303 0.0777,0.31071 0.23302,0.62141 0.3107,0.77675 0.15545,0.0777 0.23302,0.31073 0.23302,0.54375 0,0.15545 0.15545,0.6214 0.31071,1.00979 0.23304,0.3107 0.38838,0.69908 0.38838,0.85445 0,0.15523 0.0777,0.38836 0.23302,0.46604 0.15545,0.15523 0.23305,0.46607 0.23305,0.69909 0,0.23304 0.15545,0.54374 0.23302,0.69908 0.15545,0.15545 0.23302,0.46607 0.23302,0.62141 0,0.0777 0.15545,0.46606 0.38838,0.85445 0.15545,0.3107 0.31071,0.69909 0.31071,0.77677 0,0.15545 0.0777,0.38838 0.23304,0.69908 0.0777,0.23303 0.23302,0.62141 0.3107,0.93211 0.0777,0.23302 0.23302,0.54375 0.31071,0.54375 0.15545,0.0777 0.23302,0.3107 0.23302,0.6214 0,0.23303 0.15545,0.69909 0.38838,1.08748 0.15523,0.3107 0.3107,0.69908 0.3107,0.85442 0,0.0777 0.0777,0.38839 0.23305,0.54375 0.15545,0.15545 0.23302,0.46604 0.23302,0.62141 0,0.15545 0.15545,0.54372 0.3107,0.9321 0.23302,0.31071 0.38839,0.69909 0.38839,0.85445 0,0.15545 0.0777,0.38839 0.23302,0.54373 0.0777,0.15545 0.23304,0.46606 0.23304,0.6214 0,0.15545 0.15545,0.54375 0.3107,0.85445 0.15545,0.38839 0.31071,0.77677 0.31071,1.00979 0,0.15545 0.15523,0.38839 0.23302,0.54375 0.15545,0.0777 0.3107,0.3107 0.3107,0.46604 0,0.23305 0.15545,0.62141 0.3107,0.93213 0.15546,0.38836 0.31073,0.77675 0.31073,1.00979 0,0.15545 0.0777,0.38839 0.23302,0.54373 0.15523,0.0777 0.23302,0.3107 0.23302,0.46606 0,0.23302 0.15523,0.62141 0.38839,1.00979 0.15545,0.3107 0.3107,0.77677 0.3107,0.93211 0,0.15545 0.0777,0.38838 0.23304,0.54375 0.15523,0.0777 0.23303,0.3107 0.23303,0.54372 0,0.15545 0.15523,0.62141 0.3107,0.93211 0.23302,0.31072 0.3107,0.77677 0.3107,0.93213 0,0.23302 0.15545,0.38838 0.3107,0.46604 0.0777,0 0.23305,0.23305 0.23305,0.38839 0,0.23304 0.15523,0.69908 0.3107,1.00979 0.15545,0.31072 0.3107,0.69908 0.3107,0.93213 0,0.15545 0.0777,0.38838 0.23302,0.46604 0.15546,0.0777 0.23303,0.46607 0.31071,0.85445 0.0777,0.3107 0.23304,0.77677 0.38838,0.85445 0.0777,0.15545 0.23302,0.46604 0.23302,0.62141 0,0.15545 0.15545,0.54372 0.31073,0.9321 0.15523,0.31071 0.3107,0.69909 0.3107,0.85445 0,0.15545 0.15545,0.38839 0.3107,0.54373 0.0777,0.15545 0.23303,0.46606 0.23303,0.6214 0,0.23305 0.15545,0.62143 0.3107,0.85445 0.15523,0.31071 0.3107,0.62141 0.3107,0.85443 0,0.15545 0.0777,0.46607 0.23304,0.54375 0.15546,0.0777 0.23303,0.38838 0.23303,0.6214 0,0.31071 0.15545,0.54375 0.23302,0.69909 0.15545,0.0777 0.3107,0.3107 0.3107,0.54375 0.0777,0.23302 0.46607,0.6214 0.85445,1.00979 0.69909,0.54372 0.77677,0.54372 2.01958,0.54372 1.08747,0 1.39818,-0.0777 1.78656,-0.38838 0.77677,-0.54373 1.16515,-1.00979 1.16515,-1.39818 0,-0.15545 0.15545,-0.38838 0.31071,-0.46604 0.0777,-0.15545 0.23302,-0.38838 0.23302,-0.69909 0,-0.23304 -0.15545,-0.54374 -0.23302,-0.62143 -0.15545,-0.15545 -0.31071,-0.46604 -0.31071,-0.69908 0,-0.3107 -0.0777,-0.69909 -0.23304,-0.85443 -0.0777,-0.15523 -0.23302,-0.46606 -0.23302,-0.69909 0,-0.15523 -0.15545,-0.54374 -0.3107,-0.93213 -0.15546,-0.3107 -0.31071,-0.77674 -0.31071,-0.93211 0,-0.23302 -0.15545,-0.54372 -0.23302,-0.6214 -0.15545,-0.0777 -0.31072,-0.46607 -0.38838,-0.69909 0,-0.3107 -0.15545,-0.69909 -0.31071,-0.77677 -0.15545,-0.0777 -0.23304,-0.38838 -0.23304,-0.6214 0,-0.23302 -0.0777,-0.62141 -0.23302,-0.77677 -0.15545,-0.15523 -0.23302,-0.54372 -0.23302,-0.77677 0,-0.23302 -0.15545,-0.54372 -0.38839,-0.69909 -0.15545,-0.15545 -0.3107,-0.46604 -0.3107,-0.69908 0,-0.23302 -0.0777,-0.62141 -0.23304,-0.77675 -0.0777,-0.15545 -0.23303,-0.54374 -0.31071,-0.85445 -0.0777,-0.23302 -0.23302,-0.54372 -0.3107,-0.69908 -0.15545,-0.0777 -0.3107,-0.38839 -0.3107,-0.69909 0,-0.3107 -0.0777,-0.62141 -0.23302,-0.77677 -0.0777,-0.0777 -0.23305,-0.3107 -0.23305,-0.54372 0,-0.15523 -0.15545,-0.54375 -0.3107,-0.85445 -0.15523,-0.23303 -0.31071,-0.62141 -0.31071,-0.85443 0,-0.23304 -0.15545,-0.54375 -0.23302,-0.69909 -0.15545,-0.0777 -0.3107,-0.3107 -0.3107,-0.46606 0,-0.15545 -0.0777,-0.54373 -0.31073,-0.85445 -0.15523,-0.31071 -0.3107,-0.77675 -0.3107,-0.93211 0,-0.15545 -0.15545,-0.62141 -0.3107,-0.93211 -0.15545,-0.3107 -0.3107,-0.69909 -0.3107,-0.77677 0,-0.15545 -0.15524,-0.46606 -0.23303,-0.69908 -0.15523,-0.23303 -0.38838,-0.85445 -0.6214,-1.3205 -0.23305,-0.54374 -0.46607,-1.16515 -0.62143,-1.47585 -0.0777,-0.23302 -0.15545,-0.54373 -0.15545,-0.69909 0,-0.0777 -0.15523,-0.38838 -0.3107,-0.6214 -0.23302,-0.38839 -0.54373,-1.39818 -0.85443,-2.48565 -0.15523,-0.3107 -0.3107,-0.69909 -0.46607,-0.85445 -0.0777,-0.23302 -0.23302,-0.46604 -0.23302,-0.69909 0,-0.15545 -0.0777,-0.46604 -0.15523,-0.54372 -0.15545,-0.0777 -0.31072,-0.46607 -0.38838,-0.77677 0,-0.38838 -0.15545,-0.77677 -0.3107,-0.85443 -0.15546,-0.15545 -0.23305,-0.38838 -0.23305,-0.69908 0,-0.23305 -0.15545,-0.46607 -0.23302,-0.62143 -0.15545,-0.0777 -0.3107,-0.38838 -0.3107,-0.62141 0,-0.3107 -0.0777,-0.69908 -0.31071,-0.85442 -0.15545,-0.23305 -0.3107,-0.62143 -0.3107,-0.85445 0,-0.23302 -0.0777,-0.46607 -0.23304,-0.62141 -0.15545,-0.0777 -0.23302,-0.38838 -0.23302,-0.69909 0,-0.3107 -0.15545,-0.6214 -0.31071,-0.85444 -0.23304,-0.15546 -0.38838,-0.46605 -0.38838,-0.69909 0,-0.23302 -0.0777,-0.54373 -0.23302,-0.77677 -0.15545,-0.15523 -0.23305,-0.46604 -0.23305,-0.62141 0,-0.23302 -0.15545,-0.54372 -0.3107,-0.77676 -0.23302,-0.23303 -0.3107,-0.62141 -0.3107,-0.85443 0,-0.15545 -0.15545,-0.46607 -0.3107,-0.69909 -0.0777,-0.15545 -0.23303,-0.46606 -0.23303,-0.6214 0,-0.23305 -0.15545,-0.54375 -0.31072,-0.69909 -0.15523,-0.23304 -0.3107,-0.62143 -0.3107,-0.93213 0,-0.3107 -0.15545,-0.62141 -0.23303,-0.77675 -0.15545,-0.0777 -0.23302,-0.31072 -0.23302,-0.54374 0,-0.15545 -0.15545,-0.54373 -0.38838,-0.77677 -0.15523,-0.3107 -0.3107,-0.69909 -0.3107,-0.85443 0,-0.15523 -0.0777,-0.46606 -0.23305,-0.6214 -0.15545,-0.23305 -0.23302,-0.46607 -0.23302,-0.62143 0,-0.15545 -0.15545,-0.54373 -0.3107,-0.85443 -0.23302,-0.38838 -0.38839,-0.77677 -0.38839,-0.85445 0,-0.15545 -0.0777,-0.46604 -0.3107,-0.85443 -0.15545,-0.3107 -0.3107,-0.69908 -0.3107,-0.85445 0,-0.15523 -0.0777,-0.38838 -0.23305,-0.46606 -0.15523,-0.15545 -0.23302,-0.38836 -0.23302,-0.62141 0,-0.23302 -0.15523,-0.6214 -0.38838,-1.00979 -0.15545,-0.3107 -0.3107,-0.69908 -0.3107,-0.85442 0,-0.0777 -0.0777,-0.38839 -0.23303,-0.54375 -0.15523,-0.15545 -0.23304,-0.46607 -0.23304,-0.62141 0,-0.23302 -0.38836,-1.32049 -0.93211,-2.25262 -0.0777,-0.23302 -0.23302,-0.62141 -0.23302,-0.77675 0,-0.15545 -0.15523,-0.46606 -0.3107,-0.77676 -0.15545,-0.23305 -0.31071,-0.62141 -0.31071,-0.77677 0,-0.23302 -0.15545,-0.46607 -0.23304,-0.69909 -0.15545,-0.15545 -0.23302,-0.38838 -0.23302,-0.54372 0,-0.0777 -0.3107,-0.77677 -0.62141,-1.39818 -0.3107,-0.69908 -0.54374,-1.32051 -0.54374,-1.47585 0,-0.0777 -0.15545,-0.31071 -0.31071,-0.46607 -0.23302,-0.15545 -0.38838,-0.46606 -0.38838,-0.54372 0,-0.46607 -2.17494,-4.89361 -2.64098,-5.43736 -0.15524,-0.15545 -0.23305,-0.38838 -0.23305,-0.46604 0,-0.0777 -0.23302,-0.54375 -0.54372,-0.93213 -0.23302,-0.38838 -0.46607,-0.77675 -0.46607,-0.77675 0,-0.0777 -0.23302,-0.46606 -0.54372,-0.85445 -0.38839,-0.38838 -0.62141,-0.69908 -0.62141,-0.77676 0,-0.0777 -0.62143,-0.85443 -1.32051,-1.78656 -1.47584,-1.9419 -3.72846,-4.19452 -5.04895,-5.20431 -0.46607,-0.31071 -1.00979,-0.77677 -1.24284,-0.93211 -0.23302,-0.23302 -1.32049,-0.93211 -2.01958,-1.32049 -0.15545,-0.0777 -0.3107,-0.23305 -0.46604,-0.23305 -0.15545,-0.0777 -0.46606,-0.3107 -0.77677,-0.46604 -0.54374,-0.38839 -1.16515,-0.62143 -1.47585,-0.62143 -0.0777,0 -0.23302,-0.15523 -0.38839,-0.23302 -0.0777,-0.15545 -0.38838,-0.3107 -0.54372,-0.3107 -0.23304,0 -0.46607,-0.0777 -0.62141,-0.23303 -0.0777,-0.0777 -0.31072,-0.23304 -0.54374,-0.23304 -0.15523,0 -0.62141,-0.15545 -0.93211,-0.3107 -0.3107,-0.15545 -0.85445,-0.3107 -1.16515,-0.3107 -0.31071,0 -0.69909,-0.15546 -0.85443,-0.31071 -0.23304,-0.0777 -0.85445,-0.23302 -1.47586,-0.3107 -0.54374,-0.0777 -1.32049,-0.15545 -1.63121,-0.3107 -0.93211,-0.38839 -11.26305,-0.38839 -12.35052,0 -0.38839,0.15545 -1.08747,0.3107 -1.63122,0.38838 -0.46604,0 -1.00979,0.15545 -1.16513,0.3107 -0.23305,0.0777 -0.62141,0.23303 -0.93213,0.23303 -0.38836,0 -0.93211,0.15523 -1.24281,0.3107 -0.38839,0.15545 -0.85445,0.3107 -1.08747,0.3107 -0.23303,0 -0.46607,0.15523 -0.62141,0.23304 -0.0777,0.15545 -0.3107,0.23303 -0.46607,0.23303 -0.0777,0 -0.54372,0.15545 -0.85442,0.3107 -0.38839,0.23302 -0.85445,0.38838 -0.93213,0.46606 -0.15545,0 -0.38839,0.15545 -0.54373,0.23303 -0.0777,0.0777 -0.85445,0.46606 -1.63119,0.85445 -0.69909,0.3107 -1.47586,0.77674 -1.63122,0.85442 -0.15545,0.15523 -0.3107,0.23305 -0.38838,0.23305 -0.15546,0 -0.23303,0.15523 -0.31071,0.23302 0,0.15545 -0.23302,0.3107 -0.38838,0.3107 -0.15545,0 -0.54373,0.15545 -0.77675,0.3107 -0.23304,0.15545 -0.85445,0.62141 -1.47585,0.93211 -1.00979,0.46607 -1.16516,0.54375 -2.56333,0.54375 -1.24281,0 -1.63119,-0.0777 -2.01958,-0.3107 -0.23302,-0.23305 -0.6214,-0.38839 -0.85445,-0.38839 -0.15545,0 -0.38838,-0.0777 -0.46604,-0.15545 -0.0777,-0.15545 -0.46607,-0.38838 -0.854447,-0.6214 -0.38838,-0.23305 -0.77677,-0.46607 -0.85443,-0.62143 -0.0777,-0.0777 -0.38838,-0.23302 -0.62143,-0.31071 -0.23302,0 -0.46604,-0.15523 -0.46604,-0.23302 0,-0.0777 -0.15545,-0.15545 -0.38838,-0.23302 -0.23305,-0.0777 -0.46607,-0.23304 -0.62141,-0.3107 -0.15545,-0.15545 -0.46606,-0.31073 -0.69909,-0.38839 -0.23304,0 -0.54374,-0.15523 -0.62142,-0.3107 -0.0777,-0.0777 -0.31071,-0.23304 -0.54373,-0.23304 -0.23302,0 -0.46606,-0.0777 -0.54374,-0.23302 -0.15523,-0.15545 -0.46605,-0.23303 -0.69909,-0.31071 -0.23302,-0.0777 -0.54373,-0.23304 -0.62141,-0.38838 -0.15545,-0.0777 -0.38838,-0.23302 -0.6214,-0.23302 -0.15545,0 -0.46607,-0.0777 -0.54373,-0.23305 -0.0777,-0.0777 -0.38838,-0.23302 -0.54374,-0.23302 -0.23303,0 -0.62141,-0.15545 -1.00979,-0.3107 -0.38839,-0.15545 -0.85445,-0.3107 -1.16516,-0.3107 -0.23302,0 -0.54372,-0.0777 -0.69908,-0.23305 -0.0777,-0.0777 -0.69909,-0.3107 -1.39818,-0.38838 -0.6214,-0.0777 -1.47583,-0.23302 -1.78655,-0.38838 -0.46605,-0.0777 -2.64099,-0.15546 -6.05874,-0.15546 -4.34989,0 -5.5927,0 -6.29179,0.23305 -0.46606,0.15545 -1.32049,0.3107 -1.86423,0.3107 -0.54373,0.0777 -1.16513,0.23302 -1.3205,0.38839 -0.15523,0.0777 -0.54372,0.23302 -0.93211,0.23302 -0.3107,0 -0.69908,0.0777 -0.85444,0.23302 -0.15546,0.0777 -0.62141,0.23304 -0.93211,0.31072 -0.31071,0.0777 -0.69909,0.23303 -0.85445,0.38837 -0.23302,0.0777 -0.46605,0.15545 -0.62141,0.15545 -0.15523,0 -0.46606,0.15545 -0.69909,0.38838 -0.23302,0.15545 -0.54372,0.3107 -0.69908,0.3107 -0.15523,0 -0.38839,0.0777 -0.46607,0.23305 0,0.15545 -0.23302,0.23302 -0.38838,0.23302 -0.15545,0 -0.46604,0.15545 -0.69909,0.3107 -0.54372,0.38839 -1.00979,0.69909 -1.39817,0.85445 -0.23302,0.0777 -0.38836,0.23302 -0.38836,0.3107 0,0.0777 -0.15545,0.23302 -0.31073,0.31071 -0.23302,0.15545 -0.62141,0.3107 -0.85443,0.46606 -0.46606,0.23302 -4.97129,4.66057 -5.74805,5.67036 -1.08748,1.39817 -2.40797,3.10705 -2.40797,3.26241 0,0.0777 -0.0777,0.23302 -0.23302,0.38838 -0.46607,0.46607 -1.39817,2.01958 -1.39817,2.2526 0,0.15545 -0.0777,0.38839 -0.31071,0.54375 -0.15545,0.15523 -0.3107,0.38838 -0.3107,0.54373 0,0.0777 -0.23304,0.62142 -0.46606,1.00978 -0.31071,0.46607 -0.54373,0.93214 -0.62141,1.08748 0,0.15545 -0.23304,0.54374 -0.38838,0.93213 -0.15523,0.38836 -0.31071,0.69908 -0.31071,0.85442 0,0.0777 -0.15545,0.23303 -0.23304,0.31071 -0.15545,0.15545 -0.23302,0.38838 -0.23302,0.6214 0,0.15545 -0.15545,0.38839 -0.23302,0.54375 -0.15545,0.15523 -0.23305,0.3107 -0.77677,1.78656 -0.31071,0.85442 -0.77677,2.01958 -1.08747,2.48564 -0.15545,0.23302 -0.23302,0.62141 -0.23302,0.77675 0,0.23304 -0.0777,0.54374 -0.23305,0.69908 -0.0777,0.0777 -0.3107,0.46607 -0.38836,0.77677 -0.38838,1.24284 -0.77677,2.25263 -1.39817,3.6508 -0.15545,0.23302 -0.23305,0.54372 -0.23305,0.69909 0,0.15545 -0.15545,0.54372 -0.38838,0.85442 -0.15545,0.31071 -0.3107,0.69909 -0.3107,0.85445 0,0.15545 -0.0777,0.38839 -0.23303,0.62141 -0.15545,0.15545 -0.23302,0.38838 -0.23302,0.6214 0,0.15546 -0.15545,0.54375 -0.31072,0.77677 -0.23302,0.31071 -0.31071,0.69909 -0.31071,0.85445 0,0.15545 -0.0777,0.38839 -0.23302,0.54373 -0.0777,0.0777 -0.23302,0.46606 -0.3107,0.85445 -0.0777,0.38838 -0.23302,0.77674 -0.38838,0.9321 -0.15546,0.0777 -0.23303,0.38839 -0.23303,0.62141 0,0.15545 -0.15545,0.46607 -0.23304,0.54375 -0.15545,0.15545 -0.23302,0.38838 -0.23302,0.6214 -0.0777,0.23302 -0.15545,0.69909 -0.38839,0.93211 -0.15545,0.3107 -0.3107,0.62141 -0.3107,0.85445 0,0.15545 -0.0777,0.38838 -0.23302,0.54372 -0.0777,0.0777 -0.23304,0.46607 -0.3107,0.77677 -0.0777,0.38839 -0.23305,0.77677 -0.31073,0.85445 -0.15545,0.0777 -0.3107,0.38836 -0.3107,0.62141 0,0.3107 -0.0777,0.54372 -0.23302,0.69909 -0.15545,0.0777 -0.23302,0.38838 -0.23302,0.69908 0,0.3107 -0.15545,0.62141 -0.31071,0.85443 -0.15545,0.15545 -0.31072,0.46606 -0.31072,0.69909 0,0.23304 -0.15545,0.62142 -0.23302,0.77676 -0.15545,0.15545 -0.31071,0.46607 -0.31071,0.62141 0,0.15545 -0.15545,0.54375 -0.3107,0.85445 -0.15545,0.23302 -0.3107,0.62141 -0.3107,0.77677 0,0.23302 -0.0777,0.46604 -0.23305,0.69908 -0.15545,0.15546 -0.23302,0.46605 -0.23302,0.62141 0,0.15545 -0.15545,0.54372 -0.3107,0.69909 -0.15545,0.23302 -0.3107,0.6214 -0.38838,0.93211 -0.23303,1.00979 -0.69909,2.09726 -0.93211,2.40796 -0.0777,0.15545 -0.23305,0.38838 -0.23305,0.62143 0,0.23302 -0.0777,0.54372 -0.23302,0.6214 -0.0777,0.15545 -0.23302,0.46605 -0.3107,0.69909 -0.0777,0.3107 -0.23302,0.69909 -0.3107,0.85443 -0.15545,0.23304 -0.23303,0.46606 -0.23303,0.62142 0,0.0777 -0.15545,0.54373 -0.31072,0.85443 -0.23302,0.38839 -0.38836,0.77677 -0.38836,0.93211 0,0.15545 -0.0777,0.38838 -0.23305,0.54375 -0.15545,0.15523 -0.23302,0.46606 -0.23302,0.54372 0,0.15545 -0.15545,0.62143 -0.3107,0.93213 -0.15545,0.38839 -0.3107,0.85443 -0.3107,1.00979 0,0.23302 -0.15545,0.46605 -0.31071,0.54373 -0.0777,0.15545 -0.23304,0.38838 -0.23304,0.54374 0,0.23302 -0.15523,0.62141 -0.3107,0.85443 -0.15545,0.3107 -0.31071,0.69909 -0.31071,0.93213 0,0.23302 -0.15545,0.54373 -0.23302,0.62141 -0.15545,0.0777 -0.23304,0.38838 -0.23304,0.54372 0,0.23304 -0.15545,0.54375 -0.38838,0.85445 -0.15523,0.23302 -0.31071,0.69909 -0.31071,0.93211 0,0.23302 -0.0777,0.46606 -0.23302,0.6214 -0.0777,0.0777 -0.23302,0.46607 -0.3107,0.77677 -0.0777,0.38839 -0.23302,0.69909 -0.3107,0.85445 -0.15546,0.0777 -0.31071,0.38839 -0.31071,0.62141 0,0.3107 -0.0777,0.54372 -0.23304,0.69908 -0.0777,0.0777 -0.23302,0.38839 -0.23302,0.69909 0,0.3107 -0.15545,0.62141 -0.31071,0.85443 -0.15545,0.15545 -0.3107,0.46606 -0.3107,0.69909 0,0.23304 -0.15545,0.54374 -0.23304,0.77676 -0.15545,0.15523 -0.31071,0.38839 -0.31071,0.54375 0,0.15545 -0.0777,0.54373 -0.3107,0.85443 -0.15545,0.3107 -0.3107,0.77677 -0.3107,1.00979 0,0.23304 -0.0777,0.46606 -0.23302,0.62143 -0.15545,0.0777 -0.23305,0.3107 -0.23305,0.54372 0,0.15545 -0.15545,0.62141 -0.38836,0.93211 -0.15545,0.3107 -0.31072,0.69909 -0.31072,0.85445 0,0.15523 -0.15545,0.54372 -0.31071,0.85443 -0.15523,0.31072 -0.3107,0.77676 -0.3107,0.93213 0,0.23302 -0.15545,0.46604 -0.23302,0.6214 -0.38838,0.3107 -0.38838,1.9419 0.0777,2.33028 0.15546,0.15545 0.31071,0.38839 0.31071,0.54375 0,0.0777 0.3107,0.38838 0.69908,0.69909 0.62141,0.38838 0.85443,0.46604 2.01958,0.46604 1.08748,0 1.39818,0 1.78656,-0.38836 z m 86.997497,-22.83683 c 0.0777,-0.15545 0.0777,-2.64101 0,-5.67037 0,-4.19453 -0.0777,-5.5927 -0.31072,-6.05877 -0.0777,-0.3107 -0.23303,-0.69908 -0.23303,-0.85442 0,-0.23305 -0.23302,-0.77677 -0.46606,-1.16515 -0.23302,-0.46607 -0.54373,-1.00979 -0.62141,-1.16516 -0.23302,-0.46604 -2.64098,-2.87403 -2.87403,-2.87403 -0.15523,0 -0.3107,-0.0777 -0.46604,-0.15523 -0.46606,-0.46604 -1.55354,-1.00979 -2.09726,-1.00979 -0.3107,0 -0.69909,-0.0777 -0.93213,-0.23302 -0.54372,-0.3107 -2.79635,-0.3107 -3.57309,0 -0.31071,0.15545 -0.77677,0.23302 -0.93213,0.23302 -0.23303,0 -0.69909,0.15545 -1.00979,0.38839 -0.388387,0.15545 -0.776767,0.3107 -0.854427,0.38838 -1.00979,0.38839 -3.57312,2.79635 -4.03918,3.72846 -0.15545,0.3107 -0.31071,0.6214 -0.38839,0.77677 -0.38838,0.6214 -0.69908,2.01958 -0.85442,3.65079 -0.0777,1.00979 -0.15523,2.56331 -0.23305,3.41776 -0.23302,2.17494 -0.23302,6.29178 0,6.60248 0.23305,0.3107 19.807477,0.3107 19.885157,0 z m -22.603817,-25.9439 c 0.69908,-0.0777 1.78655,-0.23304 2.3303,-0.3107 0.77675,0 1.24281,-0.15545 1.39817,-0.38838 0.15523,-0.15523 0.38837,-0.31071 0.54373,-0.31071 0.15545,0 0.54372,-0.3107 0.93211,-0.62142 0,0 0.69908,-0.69909 0.69908,-0.69909 0,0 0,-6.75783 0,-6.75783 -0.0777,-5.35967 -0.0777,-6.99086 -0.3107,-7.45693 -0.3107,-0.77677 -0.46604,-1.16515 -0.6214,-1.39817 -0.0777,-0.15545 -0.31071,-0.62141 -0.54373,-1.08747 -0.46606,-1.00979 -0.46606,-0.93211 -1.94192,-2.48565 -1.39817,-1.47583 -2.64098,-2.48562 -3.10705,-2.48562 -0.15545,0 -0.38838,-0.15545 -0.46607,-0.23305 -0.15545,-0.15545 -0.54372,-0.3107 -0.85442,-0.38838 -0.38839,-0.0777 -0.69909,-0.23302 -0.77677,-0.3107 0,-0.15545 -0.23302,-0.23302 -0.46607,-0.23302 -0.15545,0 -0.69908,-0.15546 -1.16513,-0.31071 -0.46606,-0.23304 -1.16515,-0.3107 -1.63121,-0.3107 -0.38839,-0.0777 -0.93211,-0.15545 -1.16513,-0.3107 -0.31071,-0.15545 -1.08747,-0.23305 -3.49544,-0.23305 -2.40796,0 -3.18473,0.0777 -3.49543,0.23305 -0.23305,0.15523 -0.85445,0.23302 -1.39818,0.3107 -0.62142,0 -1.24283,0.0777 -1.63121,0.3107 -0.38839,0.15545 -0.93211,0.31071 -1.16513,0.31071 -0.31071,0 -0.62143,0.15523 -0.77677,0.23302 -0.23302,0.15545 -0.46607,0.23304 -0.54375,0.23304 -0.15523,0 -0.54372,0.15545 -0.93211,0.3107 -0.38838,0.15545 -0.77677,0.38839 -0.93211,0.38839 -0.15545,0.0777 -0.38838,0.23302 -0.46606,0.3107 -0.15545,0.0777 -0.69909,0.3107 -1.24281,0.54372 -0.46607,0.23303 -0.93213,0.54375 -0.93213,0.62141 0,0.0777 -0.15545,0.15545 -0.38839,0.23304 -0.3107,0.15545 -0.69908,0.38839 -1.00979,0.69909 -0.3107,0.23302 -0.69908,0.54373 -0.85442,0.69909 -1.24284,0.85443 -2.01958,1.55351 -3.0294,2.87401 -0.69908,0.93213 -2.17492,3.65079 -2.17492,4.03918 0,0.15545 -0.15523,0.3107 -0.3107,0.38838 -0.0777,0.15545 -0.23304,0.46604 -0.23304,0.77675 0,0.31072 -0.0777,0.62142 -0.23302,0.69908 -0.0777,0.0777 -0.23303,0.54375 -0.31071,0.93213 -0.0777,0.46605 -0.15523,0.85443 -0.3107,1.00979 -0.15545,0.15523 -0.23304,1.08747 -0.23304,2.64099 -0.0777,2.17494 -0.0777,2.48564 0.23304,3.02939 0.23302,0.38838 0.38838,0.69909 0.38838,0.77675 0,0.31072 1.08745,1.55353 1.86422,2.25262 1.00979,0.85445 1.24283,1.00979 2.64101,1.32049 1.00979,0.23305 2.33028,0.3107 13.98174,0.3107 7.22389,0 13.36031,-0.0777 14.13708,-0.15545 z m 54.528777,-0.23304 c 0.23302,-0.15523 0.6214,-0.46604 0.69908,-0.54372 0.15545,-0.0777 0.31071,-0.23303 0.38839,-0.23303 0.3107,0 2.09726,-1.86423 2.25262,-2.3303 0.0777,-0.15545 0.23302,-0.46604 0.3107,-0.62141 0.69909,-1.08747 0.85443,-3.57311 0.46605,-4.8936 -0.15545,-0.38839 -0.31071,-1.00979 -0.31071,-1.3205 0,-0.38838 -0.0777,-0.85445 -0.15545,-1.00979 -0.15545,-0.15523 -0.3107,-0.6214 -0.38838,-1.00979 -0.0777,-0.38838 -0.23302,-0.77676 -0.3107,-0.85445 -0.15546,-0.15523 -0.23303,-0.46606 -0.23303,-0.69908 0,-0.23302 -0.15545,-0.54373 -0.23302,-0.62141 -0.15545,-0.15545 -0.3107,-0.3107 -0.3107,-0.46606 0,-0.23302 -0.23304,-0.85443 -0.62143,-1.39818 -0.15545,-0.3107 -0.38838,-0.69908 -0.46604,-0.85442 -0.38839,-0.93213 -4.03918,-4.50523 -4.73827,-4.58291 -0.15545,-0.0777 -0.3107,-0.15545 -0.46604,-0.3107 -0.23305,-0.31071 -1.08747,-0.85445 -1.47586,-0.93213 -0.23302,-0.0777 -0.38838,-0.23303 -0.38838,-0.31071 0,-0.0777 -0.15545,-0.15545 -0.3107,-0.15545 -0.15546,0 -0.46607,-0.15545 -0.69909,-0.3107 -0.23302,-0.15545 -0.46607,-0.3107 -0.62141,-0.3107 -0.0777,0 -0.46606,-0.15545 -0.77677,-0.31071 -0.38838,-0.23302 -0.85445,-0.38838 -1.08747,-0.38838 -0.15545,0 -0.46606,-0.0777 -0.54372,-0.23302 -0.15545,-0.15545 -0.46607,-0.23304 -0.77677,-0.23304 -0.23304,0 -0.77677,-0.15546 -1.16515,-0.31071 -0.38839,-0.23302 -1.08747,-0.3107 -1.55352,-0.3107 -0.38838,0 -1.08747,-0.15545 -1.39817,-0.3107 -0.77677,-0.31071 -6.29178,-0.31071 -6.91321,0 -0.23302,0.15523 -0.77675,0.23302 -1.32049,0.3107 -0.46607,0 -1.16515,0.0777 -1.55352,0.3107 -0.38838,0.15545 -0.93213,0.31071 -1.08747,0.31071 -0.23304,0 -0.46606,0.0777 -0.54374,0.15545 0,0.0777 -0.38839,0.23304 -0.69909,0.31072 -0.38838,0.15523 -0.77677,0.3107 -0.93211,0.46604 -0.15545,0.0777 -0.38838,0.23305 -0.62141,0.23305 -0.23304,0 -0.38838,0.0777 -0.38838,0.15523 0,0.0777 -0.38838,0.3107 -0.77677,0.54372 -0.46606,0.31071 -1.16515,0.85445 -1.55353,1.3205 -0.85443,0.77676 -2.17492,2.71868 -2.33029,3.26241 -0.0777,0.23302 -0.23302,0.46606 -0.38838,0.6214 -0.0777,0.0777 -0.23302,0.31071 -0.23302,0.54375 0,0.15545 -0.0777,0.46604 -0.23302,0.62141 -0.0777,0.23302 -0.23305,1.00979 -0.38839,1.78655 -0.0777,0.85443 -0.23304,1.86422 -0.3107,2.25261 -0.0777,0.38838 -0.15545,2.87402 -0.15545,5.43735 0,0 0,4.73825 0,4.73825 0,0 0.85443,0.85445 0.85443,0.85445 0.54374,0.46604 1.08747,0.9321 1.39817,0.9321 0.23304,0.0777 0.54375,0.23303 0.69909,0.31071 0.0777,0.15545 0.6214,0.3107 1.08747,0.38838 0.54374,0 1.24283,0.15545 1.63119,0.23302 0.38839,0.0777 7.14624,0.15545 14.91387,0.15545 0,0 14.21476,0 14.21476,0 0,0 0.54373,-0.38838 0.54373,-0.38838 z"
       inkscape:export-filename="22.png"
       inkscape:export-xdpi="96"
       inkscape:export-ydpi="96" />
  </g>
</svg>
